<svg xmlns="http://www.w3.org/2000/svg" viewBox="0 0 541.11 348.01"><defs><style>.cls-1{fill:#fff;}</style></defs><title>Asset 8</title><g id="Layer_2" data-name="Layer 2"><g id="Layer_2-2" data-name="Layer 2"><path class="cls-1" d="M270.39,348c-1.23-.89-2.51-1.67-3.61-2.63q-21.6-18.87-43.16-37.77-44.3-38.78-88.57-77.53-37.5-32.84-75-65.72Q34.16,141.64,8.2,119c-2.35-2.06-4.6-4.24-6.92-6.32-1.62-1.46-1.69-3-.28-4.56,5.69-6.47,11.43-12.91,17.07-19.42,2.17-2.5,4-1.65,6.07.11,9.81,8.51,19.67,17,29.45,25.52q28.51,24.89,57,49.86,31.74,27.77,63.51,55.48l81.26,71.06c3.95,3.46,8,6.79,11.81,10.42,2.55,2.44,4.45,2.14,7-.1,12.8-11.36,25.73-22.59,38.62-33.85q40.92-35.77,81.84-71.54,34.56-30.23,69.09-60.48c13.75-12,27.59-23.86,41.39-35.79,4.25-3.67,8.52-7.33,12.72-11.06,1.81-1.6,3.34-1.87,5.08.14,5.73,6.61,11.54,13.14,17.3,19.71,1.77,2,.87,3.6-.84,5.11q-18.31,16-36.6,32.15Q473.81,170.71,444.89,196q-37.5,32.85-75,65.72-43.86,38.4-87.74,76.77c-3.1,2.72-6.21,5.43-9.35,8.1A18.44,18.44,0,0,1,270.39,348Z"/><path class="cls-1" d="M368.68,98.3a97.87,97.87,0,0,1-98.31,98.12c-54.33,0-97.93-44-98-98.52C172.34,42.73,218.54-.83,271.7,0A98.17,98.17,0,0,1,368.68,98.3ZM270.61,33.62a64.54,64.54,0,0,0-64.72,64.53c0,35.48,29.22,64.82,64.64,64.81a64.67,64.67,0,0,0,.08-129.34Z"/></g></g></svg>