<svg xmlns="http://www.w3.org/2000/svg" viewBox="0 0 204.99 359.04"><title>Asset 4</title><g id="Layer_2" data-name="Layer 2"><g id="Obj"><path d="M205,18.48q-6.83,6.48-13.65,13L157.08,64.15,132.46,87.69l-31.4,30L73.65,143.85,43.47,172.68l-7.17,6.86,6.64,6.36,24.8,23.69,34.09,32.55,30,28.66,30.26,28.91L191,327.31l13.61,13a2.7,2.7,0,0,0,.4.25v.24l-5.53,5.81L187.71,359h-.24q-8.31-8-16.63-15.93-10.44-10-20.9-20-17.17-16.39-34.36-32.79Q103.27,278.6,91,266.82L56.7,234.11,26.54,205.27.7,180.58c-.93-.89-.94-1.22,0-2.12L51.44,130,88.91,94.2l48.3-46.14L169.3,17.41l18-17.13a1.86,1.86,0,0,0,.21-.28h.24c.74.82,1.46,1.67,2.23,2.47q7.51,7.89,15.05,15.77Z"/></g></g></svg>