<svg width="24" height="26" viewBox="0 0 24 26" fill="none" xmlns="http://www.w3.org/2000/svg">
<path d="M12.875 5.99998C12.875 5.51673 12.4833 5.12498 12 5.12498C11.5168 5.12498 11.125 5.51673 11.125 5.99998V10.6666C11.125 11.1499 11.5168 11.5416 12 11.5416C12.4833 11.5416 12.875 11.1499 12.875 10.6666V5.99998Z" fill="white"/>
<path fill-rule="evenodd" clip-rule="evenodd" d="M2.95842 9.49998C2.95842 4.50641 7.00651 0.458313 12.0001 0.458313C16.9937 0.458313 21.0418 4.50641 21.0418 9.49998V10.3214C21.0418 11.1345 21.2824 11.9294 21.7334 12.6059L23.0735 14.616C24.6288 16.9489 23.4414 20.1199 20.7364 20.8576C19.8548 21.0981 18.9658 21.3015 18.0716 21.4678L18.0694 21.4737C17.1722 23.8676 14.7743 25.5416 12 25.5416C9.22569 25.5416 6.82782 23.8676 5.93066 21.4737L5.92845 21.4677C5.03431 21.3014 4.14532 21.0981 3.26377 20.8576C0.558746 20.1199 -0.62858 16.9489 0.926699 14.616L2.26674 12.6059C2.71775 11.9294 2.95842 11.1345 2.95842 10.3214V9.49998ZM8.06078 21.7931C10.6776 22.1058 13.3225 22.1058 15.9392 21.7931C15.1098 22.9849 13.6671 23.7916 12 23.7916C10.3329 23.7916 8.89023 22.9849 8.06078 21.7931ZM12.0001 2.20831C7.97301 2.20831 4.70842 5.4729 4.70842 9.49998V10.3214C4.70842 11.48 4.36548 12.6126 3.72282 13.5766L2.38279 15.5867C1.49008 16.9257 2.17159 18.7459 3.72422 19.1693C9.14252 20.647 14.8577 20.647 20.276 19.1693C21.8286 18.7459 22.5101 16.9257 21.6174 15.5867L20.2773 13.5766C19.6347 12.6126 19.2918 11.48 19.2918 10.3214V9.49998C19.2918 5.4729 16.0272 2.20831 12.0001 2.20831Z" fill="white"/>
</svg>
