<svg xmlns="http://www.w3.org/2000/svg" viewBox="0 0 357.29 357.24"><defs><style>.cls-1{fill:#fff;}</style></defs><title>Asset 3</title><g id="Layer_2" data-name="Layer 2"><g id="Layer_2-2" data-name="Layer 2"><path class="cls-1" d="M357.29,178.64c0,99.16-79.88,178.63-179.55,178.6C79.8,357.22-.11,276.75,0,178.26.11,79.44,80.21,0,179.63,0,277.55.05,357.28,80.22,357.29,178.64Zm-24.55-.15C332.4,92.63,263.32,24.43,177,24.73,92.64,25,24.23,94.62,24.81,180.07c.58,85.64,71.05,153.31,155.8,152.54C264.12,331.84,333.07,262.4,332.74,178.49Z"/><path class="cls-1" d="M129.06,92.36c1.36-13.69,4.25-18.1,12.09-18.44,4.7-.2,9,1.55,10.9,5.88,1.64,3.73,1.91,8.06,2.85,12.39h30c0-2.11-.06-4.06,0-6,.29-7.2,5.57-12.39,12.44-12.29s12,5.4,12.1,12.6c.11,6.56.11,6.56,6.49,9.07,25.81,10.19,38.18,42,25.82,67.2-2.76,5.64-6.74,10.68-10.48,16.5.11.13.77,1,1.51,1.75,25.29,26.09,14.35,70.45-20.22,81.73-2.48.81-3.48,1.91-3.14,4.46a25.74,25.74,0,0,1,0,4.12,12.2,12.2,0,0,1-11.88,12.09,12.36,12.36,0,0,1-12.6-11.36c-.19-2.22,0-4.48,0-7H154c0,1.85.05,3.78,0,5.71-.22,7.27-5.31,12.54-12.15,12.65s-12.08-5.2-12.48-12.38c-.1-1.86,0-3.74,0-6.22-2.17,0-4.1,0-6,0-7-.13-12.21-5.2-12.39-11.93a12.28,12.28,0,0,1,12-12.73c2-.09,3.94,0,6.15,0V117.05c-1.9,0-3.83,0-5.76,0-7.12-.17-12.41-5.45-12.4-12.34s5.22-12.16,12.37-12.33C125.17,92.32,127,92.36,129.06,92.36Zm25,24.69c0,16.07,0,31.53,0,47,0,2.24,1.33,2.29,2.95,2.28,14,0,28,.19,41.94-.07,13-.23,23.13-11.34,23-24.71-.19-13.79-10.32-24.33-23.57-24.48-5.49-.06-11,0-16.48,0Zm.21,122.85c1,.1,1.89.26,2.73.26q20.81,0,41.62,0a21.6,21.6,0,0,0,4.82-.48,24.32,24.32,0,0,0,18.3-26.15C220.21,200,211,191.12,198.15,191c-13.5-.1-27,0-40.49,0-1.08,0-2.16.16-3.41.26Z"/></g></g></svg>