<svg width="16" height="16" viewBox="0 0 16 16" fill="none" xmlns="http://www.w3.org/2000/svg">
<path fill-rule="evenodd" clip-rule="evenodd" d="M5.00542 0.852252C5.22509 1.07192 5.22509 1.42808 5.00542 1.64775C4.8264 1.82677 4.67145 2.00965 4.53827 2.19492C4.35695 2.44717 4.00546 2.50466 3.75321 2.32334C3.50096 2.14201 3.44346 1.79053 3.62479 1.53828C3.7947 1.30191 3.9894 1.07278 4.20993 0.852252C4.4296 0.632583 4.78575 0.632583 5.00542 0.852252ZM12.5436 3.94466C12.0844 3.82901 11.6127 3.80674 11.1425 3.86277C10.8341 3.89953 10.5542 3.67927 10.5174 3.37079C10.4807 3.06231 10.7009 2.78244 11.0094 2.74567C11.6028 2.67496 12.2136 2.70143 12.8184 2.85371C13.1196 2.92957 13.3023 3.23529 13.2265 3.53654C13.1506 3.8378 12.8449 4.02052 12.5436 3.94466ZM3.5374 2.77427C3.83865 2.85013 4.02137 3.15584 3.94551 3.4571C3.82986 3.91637 3.8076 4.38809 3.86362 4.8582C3.90039 5.16668 3.68012 5.44656 3.37164 5.48332C3.06317 5.52008 2.78329 5.29982 2.74653 4.99134C2.67581 4.39798 2.70228 3.78714 2.85457 3.18238C2.93043 2.88113 3.23614 2.69841 3.5374 2.77427ZM10.0391 3.51077C10.1643 3.7951 10.0353 4.12706 9.75095 4.25223C9.30044 4.45055 8.87355 4.71034 8.48917 5.01171C8.24469 5.20339 7.89112 5.16059 7.69944 4.91611C7.50776 4.67163 7.55056 4.31806 7.79504 4.12638C8.24945 3.77011 8.75673 3.46072 9.29767 3.22258C9.582 3.09741 9.91397 3.22644 10.0391 3.51077ZM13.6774 3.75236C13.8587 3.5001 14.2102 3.44261 14.4625 3.62393C14.6988 3.79385 14.928 3.98855 15.1485 4.20907C15.3682 4.42874 15.3682 4.7849 15.1485 5.00457C14.9288 5.22424 14.5727 5.22424 14.353 5.00457C14.174 4.82555 13.9911 4.67059 13.8058 4.53742C13.5536 4.35609 13.4961 4.00461 13.6774 3.75236ZM7.55806 5.83458C7.60278 5.62702 7.52749 5.40287 7.34682 5.26662C7.09879 5.07956 6.74608 5.12899 6.55902 5.37702C6.17921 5.88063 5.88683 6.43028 5.72827 6.99174C5.65852 7.23873 5.7651 7.4938 5.97284 7.62263C5.95014 7.74518 5.9383 7.87133 5.9383 7.99995C5.9383 8.10045 5.94553 8.19945 5.95952 8.2964C5.90946 8.33815 5.86773 8.38782 5.83543 8.44269C5.62787 8.39797 5.40373 8.47326 5.26747 8.65393C5.08041 8.90196 5.12984 9.25467 5.37787 9.44172C5.88148 9.82154 6.43114 10.1139 6.99259 10.2725C7.23958 10.3422 7.49464 10.2356 7.62347 10.0279C7.74603 10.0506 7.87218 10.0624 8.0008 10.0624C8.1013 10.0624 8.2003 10.0552 8.29726 10.0412C8.339 10.0913 8.38867 10.133 8.44355 10.1653C8.39882 10.3729 8.47411 10.597 8.65478 10.7333C8.90281 10.9203 9.25552 10.8709 9.44258 10.6229C9.82239 10.1193 10.1148 9.56961 10.2733 9.00816C10.3431 8.76117 10.2365 8.5061 10.0288 8.37727C10.0515 8.25472 10.0633 8.12856 10.0633 7.99995C10.0633 7.89944 10.0561 7.80045 10.0421 7.70349C10.0921 7.66175 10.1339 7.61208 10.1662 7.5572C10.3737 7.60193 10.5979 7.52663 10.7341 7.34597C10.9212 7.09794 10.8718 6.74523 10.6237 6.55817C10.1201 6.17836 9.57046 5.88597 9.00901 5.72742C8.76202 5.65767 8.50695 5.76425 8.37812 5.97198C8.25557 5.94929 8.12942 5.93745 8.0008 5.93745C7.9003 5.93745 7.8013 5.94468 7.70434 5.95867C7.6626 5.90861 7.61293 5.86688 7.55806 5.83458ZM8.89768 7.07458C8.74545 7.18097 8.54379 7.20978 8.35951 7.13336C8.24976 7.08785 8.12895 7.06245 8.0008 7.06245C7.87265 7.06245 7.75184 7.08785 7.64209 7.13336C7.45875 7.20939 7.25821 7.18126 7.10625 7.0762C7.09594 7.08496 7.08567 7.09392 7.07543 7.10306C7.18183 7.2553 7.21064 7.45695 7.13422 7.64123C7.0887 7.75099 7.0633 7.87179 7.0633 7.99995C7.0633 8.1281 7.0887 8.2489 7.13422 8.35866C7.21025 8.542 7.18212 8.74254 7.07705 8.8945C7.08582 8.90481 7.09477 8.91508 7.10392 8.92531C7.25615 8.81892 7.45781 8.79011 7.64209 8.86653C7.75185 8.91205 7.87265 8.93745 8.0008 8.93745C8.12895 8.93745 8.24976 8.91205 8.35952 8.86653C8.54286 8.7905 8.7434 8.81863 8.89536 8.92369C8.90567 8.91493 8.91593 8.90598 8.92617 8.89683C8.81977 8.7446 8.79097 8.54294 8.86738 8.35866C8.9129 8.2489 8.9383 8.1281 8.9383 7.99995C8.9383 7.87179 8.9129 7.75099 8.86738 7.64123C8.79136 7.45789 8.81948 7.25735 8.92455 7.10539C8.91578 7.09508 8.90683 7.08481 8.89768 7.07458ZM3.51162 5.96161C3.79595 5.83644 4.12791 5.96547 4.25308 6.2498C4.4514 6.7003 4.7112 7.12719 5.01257 7.51158C5.20424 7.75606 5.16144 8.10963 4.91696 8.30131C4.67248 8.49299 4.31891 8.45018 4.12723 8.2057C3.77096 7.7513 3.46157 7.24401 3.22344 6.70307C3.09827 6.41874 3.22729 6.08678 3.51162 5.96161ZM11.0846 7.69858C11.3291 7.50691 11.6827 7.54971 11.8744 7.79419C12.2306 8.2486 12.54 8.75588 12.7782 9.29682C12.9033 9.58115 12.7743 9.91311 12.49 10.0383C12.2057 10.1634 11.8737 10.0344 11.7485 9.7501C11.5502 9.29959 11.2904 8.8727 10.989 8.48831C10.7974 8.24384 10.8402 7.89026 11.0846 7.69858ZM12.63 10.5166C12.9384 10.4798 13.2183 10.7001 13.2551 11.0086C13.3258 11.6019 13.2993 12.2128 13.147 12.8175C13.0712 13.1188 12.7655 13.3015 12.4642 13.2256C12.1629 13.1498 11.9802 12.844 12.0561 12.5428C12.1717 12.0835 12.194 11.6118 12.138 11.1417C12.1012 10.8332 12.3215 10.5533 12.63 10.5166ZM0.853107 10.9953C1.07278 10.7757 1.42893 10.7757 1.6486 10.9953C1.82762 11.1743 2.01051 11.3293 2.19577 11.4625C2.44802 11.6438 2.50552 11.9953 2.32419 12.2475C2.14287 12.4998 1.79138 12.5573 1.53913 12.376C1.30276 12.206 1.07363 12.0113 0.853107 11.7908C0.633437 11.5712 0.633437 11.215 0.853107 10.9953ZM8.30216 11.0838C8.49384 11.3283 8.45104 11.6818 8.20656 11.8735C7.75215 12.2298 7.24487 12.5392 6.70393 12.7773C6.4196 12.9025 6.08764 12.7735 5.96247 12.4891C5.8373 12.2048 5.96632 11.8728 6.25065 11.7477C6.70116 11.5493 7.12805 11.2896 7.51243 10.9882C7.75691 10.7965 8.11049 10.8393 8.30216 11.0838ZM2.77513 12.4633C2.85099 12.1621 3.1567 11.9794 3.45795 12.0552C3.91722 12.1709 4.38895 12.1932 4.85906 12.1371C5.16754 12.1004 5.44741 12.3206 5.48417 12.6291C5.52094 12.9376 5.30067 13.2175 4.99219 13.2542C4.39883 13.3249 3.78799 13.2985 3.18324 13.1462C2.88198 13.0703 2.69926 12.7646 2.77513 12.4633ZM12.2484 13.6766C12.5006 13.8579 12.5581 14.2094 12.3768 14.4616C12.2069 14.698 12.0122 14.9271 11.7917 15.1476C11.572 15.3673 11.2158 15.3673 10.9962 15.1476C10.7765 14.928 10.7765 14.5718 10.9962 14.3521C11.1752 14.1731 11.3302 13.9902 11.4633 13.805C11.6447 13.5527 11.9961 13.4952 12.2484 13.6766Z" fill="white"/>
</svg>
