<svg width="18" height="14" viewBox="0 0 18 14" fill="none" xmlns="http://www.w3.org/2000/svg">
<path fill-rule="evenodd" clip-rule="evenodd" d="M7.45769 0.4375H10.5423C11.9206 0.437488 13.0124 0.437479 13.8668 0.552351C14.7461 0.670572 15.4578 0.91966 16.0191 1.48093C16.5276 1.98949 16.7805 2.62235 16.9113 3.39334C17.0068 3.95618 17.0417 4.62217 17.0546 5.40578C17.0598 5.43642 17.0625 5.46789 17.0625 5.5C17.0625 5.52648 17.0607 5.55253 17.0571 5.57803C17.0598 5.79284 17.0611 6.01619 17.0618 6.24835C17.0627 6.55901 16.8116 6.81159 16.5009 6.8125C16.1903 6.81341 15.9377 6.56231 15.9368 6.25165C15.9366 6.18763 15.9364 6.12459 15.9361 6.0625H2.06399C2.06257 6.35379 2.0625 6.66558 2.0625 7C2.0625 8.43012 2.0637 9.44612 2.16732 10.2169C2.26877 10.9714 2.45902 11.4062 2.77643 11.7236C3.09384 12.041 3.52857 12.2312 4.28314 12.3327C5.05388 12.4363 6.06988 12.4375 7.5 12.4375H8.625C8.93566 12.4375 9.1875 12.6893 9.1875 13C9.1875 13.3107 8.93566 13.5625 8.625 13.5625H7.45769C6.07937 13.5625 4.98764 13.5625 4.13323 13.4476C3.25392 13.3294 2.54221 13.0803 1.98093 12.5191C1.41966 11.9578 1.17057 11.2461 1.05235 10.3668C0.937479 9.51236 0.937488 8.42063 0.9375 7.04231V6.95769C0.937496 6.46137 0.937492 6.00221 0.942852 5.57791C0.939324 5.55244 0.937501 5.52644 0.937501 5.5C0.937501 5.46787 0.940194 5.43638 0.945367 5.40572C0.956731 4.72533 0.984502 4.13789 1.05235 3.63323C1.17057 2.75392 1.41966 2.04221 1.98093 1.48093C2.54221 0.91966 3.25392 0.670572 4.13323 0.552351C4.98764 0.437479 6.07937 0.437488 7.45769 0.4375ZM2.08206 4.9375H15.9179C15.9 4.40139 15.866 3.95785 15.8022 3.58153C15.695 2.95013 15.5123 2.56519 15.2236 2.27643C14.9062 1.95902 14.4714 1.76877 13.7169 1.66732C12.9461 1.5637 11.9301 1.5625 10.5 1.5625H7.5C6.06989 1.5625 5.05388 1.5637 4.28314 1.66732C3.52857 1.76877 3.09384 1.95902 2.77643 2.27643C2.45902 2.59384 2.26877 3.02857 2.16732 3.78314C2.1224 4.11725 2.09673 4.49745 2.08206 4.9375ZM11.625 7.9375C11.9357 7.9375 12.1875 8.18934 12.1875 8.5V11.642L12.7273 11.1023C12.9469 10.8826 13.3031 10.8826 13.5227 11.1023C13.7424 11.3219 13.7424 11.6781 13.5227 11.8977L12.0227 13.3977C11.8031 13.6174 11.4469 13.6174 11.2273 13.3977L9.72725 11.8977C9.50758 11.6781 9.50758 11.3219 9.72725 11.1023C9.94692 10.8826 10.3031 10.8826 10.5227 11.1023L11.0625 11.642V8.5C11.0625 8.18934 11.3143 7.9375 11.625 7.9375ZM14.6023 8.10225C14.8219 7.88258 15.1781 7.88258 15.3977 8.10225L16.8977 9.60225C17.1174 9.82192 17.1174 10.1781 16.8977 10.3977C16.6781 10.6174 16.3219 10.6174 16.1023 10.3977L15.5625 9.858V13C15.5625 13.3107 15.3107 13.5625 15 13.5625C14.6893 13.5625 14.4375 13.3107 14.4375 13V9.858L13.8977 10.3977C13.6781 10.6174 13.3219 10.6174 13.1023 10.3977C12.8826 10.1781 12.8826 9.82192 13.1023 9.60225L14.6023 8.10225ZM3.9375 10C3.9375 9.68934 4.18934 9.4375 4.5 9.4375H7.5C7.81066 9.4375 8.0625 9.68934 8.0625 10C8.0625 10.3107 7.81066 10.5625 7.5 10.5625H4.5C4.18934 10.5625 3.9375 10.3107 3.9375 10Z" fill="white"/>
</svg>
