<svg xmlns="http://www.w3.org/2000/svg" viewBox="0 0 424.78 425.14"><defs><style>.cls-1{fill:#fff;}</style></defs><title>Asset 1</title><g id="Layer_2" data-name="Layer 2"><g id="Layer_2-2" data-name="Layer 2"><path class="cls-1" d="M212.25,425.14c-25.49-.4-51-.55-76.46-1.29-19.37-.56-38.64-2.3-57.5-7.22C39.13,406.42,15.78,381.1,6.91,342,1.26,317.09.29,291.73.15,266.36c-.21-39.62-.25-79.24.21-118.85.26-22.47,1.7-44.93,7-66.94C17.41,39,43.9,14.8,85.31,6.15c22.49-4.7,45.32-5.94,68.2-6C196,0,238.48-.08,281,.34c21.23.2,42.44,1.82,63.2,6.86,40.12,9.74,64.52,35,73.69,75.09,5.35,23.41,6.53,47.26,6.7,71.12.28,40.87.35,81.74-.11,122.6-.26,24.11-1.67,48.21-8,71.7-7.11,26.32-21.66,47-46.11,59.89-14.43,7.64-30.09,11.26-46.13,13.36-30.2,4-60.58,3.75-90.95,3.83-7,0-14,0-21,0ZM27.19,212.06h-.35c0,19.87-.21,39.74.06,59.61.29,20.87,1.34,41.68,5.47,62.25,6.31,31.44,24.6,51,56.19,57.86,19.15,4.18,38.58,5.63,58.06,5.8,41.23.37,82.47.34,123.71.15,22.25-.1,44.47-1.17,66.31-6.05,28.74-6.43,47.28-23.4,54.47-52.33,4.47-17.94,6.21-36.23,6.38-54.59.44-45.1.45-90.22.27-135.33-.08-20.87-1.41-41.68-6.09-62.15-6.71-29.32-24.46-48-54-54-15.11-3.07-30.62-5.52-46-5.73-52.6-.7-105.22-.49-157.82-.16a207.85,207.85,0,0,0-47.51,5.82C58.37,40,40.71,57,33.7,85.13c-4.51,18.07-6.06,36.48-6.4,55C26.86,164.07,27.19,188.07,27.19,212.06Z"/><path class="cls-1" d="M126,257.38c.2-9.52,4.28-21.73,8.78-33.78,5.68-15.18,11.8-30.2,17.69-45.31,4.8-12.3,13.24-20.94,25.57-25.79,22-8.66,43.67-18.46,66.69-24.42,8.65-2.23,17.43-3.33,26.31-1.21,15.16,3.62,27.06,18.24,27.72,33.84a70.6,70.6,0,0,1-4.61,27.55q-11.48,31.05-23.74,61.8a34.35,34.35,0,0,1-18.16,19.17c-24.18,10.67-48.49,21.18-74.25,27.51a56.85,56.85,0,0,1-20,1.48C139,295.89,125.94,280.15,126,257.38ZM165.69,272c1.65-.3,5-.43,8-1.52,21-7.59,41.85-15.41,62.79-23.07,5.56-2,9.05-5.81,11.16-11.29,5.87-15.25,12.19-30.34,17.77-45.69A165.92,165.92,0,0,0,272,166.26c1.77-8.87-3.41-14.29-12.38-13.74a38.39,38.39,0,0,0-7.38,1.2c-22.53,5.85-43.72,15.37-65.21,24A15.67,15.67,0,0,0,177.8,187c-6.17,15.8-12.68,31.47-18.5,47.4a161.78,161.78,0,0,0-6.51,24.15C151.18,266.77,156.19,272.23,165.69,272Z"/></g></g></svg>