<svg xmlns="http://www.w3.org/2000/svg" viewBox="0 0 290.67 310.12"><defs><style>.cls-1{fill:#fff;}</style></defs><title>Asset 2</title><g id="Layer_2" data-name="Layer 2"><g id="Layer_2-2" data-name="Layer 2"><path class="cls-1" d="M290.43,177c0,21.62.3,43.25-.14,64.87a149.5,149.5,0,0,1-3.07,28.24c-4.69,21.82-19.24,34-40.78,37.34A240.48,240.48,0,0,1,211.36,310c-33.24.25-66.49.21-99.72-.31A134,134,0,0,1,82.75,306c-18.68-4.47-30.23-16.69-34.57-35.46-.7-3-1.86-4.41-5.14-5.1a53.87,53.87,0,0,1-43-52.57C0,171.47-.07,130.1.45,88.73a208.39,208.39,0,0,1,3.7-36.45c5-26.15,21.38-41.79,47.2-47.72C68.9.53,86.81.41,104.66.24q42-.42,84-.07c24.29.23,42.32,11,52.9,33.24a34.85,34.85,0,0,1,3,9.23c.44,2.67,1.76,3.42,4.06,3.89,13.11,2.66,24.16,8.66,31.72,20.07A52.78,52.78,0,0,1,289,93.42c.93,18.45,1.23,36.94,1.62,55.42.2,9.37,0,18.75,0,28.13ZM268,177h.12c0-17.49.19-35-.07-52.48-.16-10.35-.55-20.74-1.68-31-1.76-16-8.55-23.23-24.22-26a143.81,143.81,0,0,0-23.08-2.07c-27-.3-54-.42-81-.22-14,.11-28,.49-41.89,1.75-17,1.55-24.27,8.51-27,25.28a160.63,160.63,0,0,0-1.93,25q-.33,57.36-.06,114.7a237.52,237.52,0,0,0,2.24,31c1.88,13.56,8.67,20.35,22,22.94A103,103,0,0,0,110.06,288c34.23.31,68.46.52,102.68.32A210.07,210.07,0,0,0,244,285.71c12.86-2,19.52-9,21.68-21.94A158.62,158.62,0,0,0,267.9,240C268.2,219,268,198,268,177ZM44.7,243a8.25,8.25,0,0,0,.28-1.34c-.12-37.85-.43-75.71-.26-113.56a336.5,336.5,0,0,1,2.19-38.48c2.85-23.7,16.62-38.49,39.89-43a167.86,167.86,0,0,1,29.76-2.91c33.6-.35,67.21-.14,100.82-.14h4c-4.2-12.9-17.09-21.7-31.53-21.73-25.86-.06-51.73-.38-77.58.11-17.32.33-34.73,1-51.91,3.1C39.81,27.59,29.64,37.83,25.74,58.25a159.54,159.54,0,0,0-2.82,28.26c-.4,42-.36,84-.45,125.93a39.82,39.82,0,0,0,.34,5.23C24.3,229.15,34,240.4,44.7,243Z"/><path class="cls-1" d="M134.15,233.05c-18.19-.24-31.12-15.57-26.84-34,3.23-13.87,8.63-27.26,13.28-40.79,1.87-5.41,4.21-10.67,6.53-15.9,2.77-6.25,7-11.41,13.33-14.16,18.26-8,36.54-16,56.08-20.54,12-2.76,22.55-.36,30.57,9.72,6.14,7.72,7.09,16.68,4.39,25.57-4.38,14.4-9.69,28.51-14.72,42.71-1.46,4.1-3.22,8.11-5.05,12.07-2.87,6.23-7.28,11.34-13.65,13.8-17.77,6.89-35.68,13.41-53.62,19.83C141.23,232.56,137.59,232.53,134.15,233.05Zm-8.68-28.74c.42,4.18,1.52,7.21,4.76,8.13a15.9,15.9,0,0,0,9.11.14q25.23-8.82,50.15-18.53c2.38-.93,4.36-4.06,5.53-6.63,3.12-6.8,5.94-13.75,8.41-20.8,3.39-9.64,6.47-19.38,9.41-29.16,1-3.45.95-7.43-2.62-9.37a13.36,13.36,0,0,0-8.37-1.48c-18.44,3.83-35.49,11.67-52.64,19.13-2.09.91-3.9,3.58-4.83,5.85-4.84,11.76-9.53,23.59-13.92,35.52C128.4,192.7,127.11,198.57,125.47,204.31Z"/></g></g></svg>