<svg width="10" height="10" viewBox="0 0 10 10" fill="none" xmlns="http://www.w3.org/2000/svg">
<path d="M9.00379 5.65063L9.09929 4.63595C9.17429 3.83902 9.21179 3.44056 9.07546 3.27584C9.00172 3.18674 8.90143 3.13215 8.79421 3.12273C8.596 3.10532 8.34709 3.38869 7.84926 3.95542C7.5918 4.24852 7.46308 4.39506 7.31947 4.41776C7.2399 4.43033 7.15882 4.41741 7.08535 4.38043C6.95274 4.3137 6.86433 4.13253 6.68751 3.77019L5.75548 1.86034C5.42135 1.17565 5.25429 0.833313 5.00004 0.833313C4.74579 0.833313 4.57873 1.17565 4.2446 1.86034L3.31257 3.77019C3.13575 4.13253 3.04734 4.3137 2.91473 4.38043C2.84126 4.41741 2.76018 4.43033 2.68061 4.41776C2.53701 4.39506 2.40828 4.24852 2.15082 3.95542C1.65299 3.38869 1.40408 3.10532 1.20587 3.12273C1.09865 3.13215 0.998365 3.18674 0.924618 3.27584C0.788289 3.44056 0.825791 3.83902 0.900794 4.63594L0.996292 5.65063C1.15365 7.32255 1.23232 8.15851 1.72508 8.66258C2.21784 9.16665 2.95636 9.16665 4.43341 9.16665H5.56668C7.04372 9.16665 7.78224 9.16665 8.275 8.66258C8.76776 8.15851 8.84643 7.32255 9.00379 5.65063Z" fill="#00E0FF"/>
</svg>
