<svg width="18" height="18" viewBox="0 0 18 18" fill="none" xmlns="http://www.w3.org/2000/svg">
<path fill-rule="evenodd" clip-rule="evenodd" d="M8.26012 3.59972C8.38925 3.43111 8.62373 3.1875 9 3.1875C9.37628 3.1875 9.61075 3.43111 9.73988 3.59972C9.86312 3.76066 9.98724 3.98343 10.1145 4.21183L10.2056 4.37527C10.2227 4.40595 10.2362 4.43008 10.2479 4.45072C10.2684 4.45553 10.2923 4.46094 10.3221 4.46768L10.5004 4.50803C10.7463 4.56358 10.9906 4.6188 11.1782 4.69271C11.3853 4.77433 11.666 4.93328 11.7742 5.28121C11.8805 5.623 11.7464 5.91252 11.6292 6.0986C11.5208 6.27081 11.3561 6.4634 11.1874 6.66056L11.0669 6.80146C11.041 6.8317 11.0215 6.85451 11.0051 6.87425C11.0073 6.9015 11.0104 6.93324 11.0145 6.9757L11.0326 7.1628C11.0583 7.42674 11.083 7.68181 11.074 7.88585C11.0644 8.09979 11.0131 8.42364 10.7227 8.64408C10.4231 8.87148 10.0923 8.82192 9.88253 8.76181C9.68922 8.70642 9.46081 8.60118 9.23077 8.49518L9.06366 8.41823C9.03858 8.40668 9.01797 8.3972 9 8.38906C8.98204 8.3972 8.96143 8.40668 8.93634 8.41823L8.76924 8.49518C8.53919 8.60118 8.31079 8.70642 8.11747 8.76181C7.90768 8.82192 7.57685 8.87148 7.2773 8.64408C6.98692 8.42364 6.93558 8.09979 6.92604 7.88585C6.91696 7.68182 6.94173 7.42675 6.96736 7.16282L6.9855 6.9757C6.98961 6.93324 6.99267 6.9015 6.99491 6.87425C6.97849 6.85451 6.959 6.8317 6.93313 6.80146L6.81264 6.66056C6.64395 6.4634 6.47918 6.27081 6.37077 6.0986C6.25363 5.91252 6.1195 5.623 6.22579 5.28121C6.33399 4.93328 6.61472 4.77433 6.82182 4.69271C7.00939 4.6188 7.25373 4.56358 7.49958 4.50803L7.67794 4.46768C7.70774 4.46094 7.73158 4.45553 7.75207 4.45072C7.76385 4.43008 7.77731 4.40595 7.79441 4.37527L7.88552 4.21182C8.01276 3.98343 8.13688 3.76066 8.26012 3.59972ZM9 4.52586C8.9564 4.60135 8.90792 4.68827 8.85078 4.79077L8.77705 4.92303L8.7603 4.95349C8.7014 5.0612 8.60386 5.23957 8.44123 5.36303C8.2752 5.48907 8.07548 5.53244 7.9587 5.5578L7.92621 5.56494L7.78303 5.59734C7.65165 5.62706 7.54463 5.65132 7.45312 5.67432C7.51265 5.74758 7.58996 5.83856 7.69052 5.95615L7.78813 6.07029L7.81061 6.0963C7.89156 6.18955 8.02226 6.34009 8.0827 6.53445C8.14242 6.72652 8.12182 6.92432 8.10882 7.04912L8.10525 7.0842L8.09049 7.23649C8.07681 7.37769 8.06617 7.49039 8.05909 7.58203C8.13724 7.5476 8.22615 7.5067 8.33177 7.45807L8.46583 7.39635L8.4961 7.38217C8.60373 7.33141 8.791 7.24309 9 7.24309C9.209 7.24309 9.39626 7.33141 9.50389 7.38217L9.53417 7.39635L9.66823 7.45807C9.77385 7.5067 9.86276 7.54761 9.94091 7.58203C9.93383 7.49039 9.92319 7.37769 9.90951 7.23649L9.89475 7.0842L9.89118 7.04912C9.87818 6.92432 9.85758 6.72652 9.9173 6.53445C9.97774 6.34009 10.1084 6.18955 10.1894 6.0963L10.2119 6.07029L10.3095 5.95615C10.41 5.83856 10.4874 5.74758 10.5469 5.67432C10.4554 5.65132 10.3483 5.62706 10.217 5.59734L10.0738 5.56494L10.0413 5.5578C9.92453 5.53244 9.72481 5.48907 9.55878 5.36303C9.39614 5.23957 9.2986 5.0612 9.23971 4.95349L9.22295 4.92303L9.14922 4.79077C9.09209 4.68827 9.0436 4.60135 9 4.52586ZM8.0545 7.88364C8.05448 7.88367 8.0543 7.88291 8.05401 7.88128L8.0545 7.88364ZM9.9455 7.88364L9.94599 7.88128C9.9457 7.88291 9.94552 7.88367 9.9455 7.88364Z" fill="white"/>
<path fill-rule="evenodd" clip-rule="evenodd" d="M5.6238 1.2054C6.49597 1.05824 7.62933 0.9375 9.00012 0.9375C10.3709 0.9375 11.5043 1.05824 12.3764 1.2054L12.4776 1.22237C13.2352 1.3492 13.865 1.45461 14.3574 2.06106C14.6732 2.45001 14.7751 2.87035 14.7986 3.33992L15.1673 3.46284C15.5147 3.5786 15.8191 3.68006 16.0606 3.79242C16.3218 3.91389 16.561 4.07035 16.744 4.32416C16.9269 4.57797 16.9997 4.85446 17.0323 5.14058C17.0625 5.40526 17.0625 5.72616 17.0625 6.09229L17.0625 6.20121C17.0625 6.50255 17.0625 6.76874 17.0402 6.99135C17.0161 7.23261 16.9627 7.46716 16.8293 7.69383C16.696 7.92051 16.5169 8.08109 16.3177 8.21933C16.1339 8.34688 15.9012 8.47613 15.6378 8.62247L13.6573 9.72278C13.2527 10.5188 12.6969 11.2285 11.9326 11.7411C11.2766 12.1811 10.4911 12.4596 9.5625 12.539V14.0625H10.6352C11.2608 14.0625 11.7995 14.5041 11.9222 15.1176L12.0861 15.9375H13.5C13.8107 15.9375 14.0625 16.1893 14.0625 16.5C14.0625 16.8107 13.8107 17.0625 13.5 17.0625H4.5C4.18934 17.0625 3.9375 16.8107 3.9375 16.5C3.9375 16.1893 4.18934 15.9375 4.5 15.9375H5.91387L6.07785 15.1176C6.20054 14.5041 6.73921 14.0625 7.36486 14.0625H8.4375V12.539C7.50903 12.4595 6.7236 12.181 6.06763 11.7411C5.30336 11.2285 4.74763 10.5189 4.34308 9.72298L2.36221 8.62247C2.09877 8.47613 1.8661 8.34688 1.6823 8.21933C1.48311 8.08109 1.304 7.92051 1.17062 7.69383C1.03725 7.46716 0.983849 7.23261 0.959737 6.99135C0.937489 6.76873 0.937497 6.50256 0.937505 6.2012L0.937502 6.09228C0.937471 5.72616 0.937443 5.40525 0.967653 5.14058C1.00031 4.85446 1.07307 4.57797 1.256 4.32416C1.43893 4.07035 1.67822 3.91389 1.93933 3.79242C2.18086 3.68006 2.4853 3.5786 2.83264 3.46284L3.20168 3.33983C3.22517 2.87029 3.32706 2.44998 3.64284 2.06106C4.13525 1.45461 4.76499 1.3492 5.52266 1.22237L5.6238 1.2054ZM7.06115 15.9375H10.9389L10.819 15.3382C10.8015 15.2506 10.7245 15.1875 10.6352 15.1875H7.36486C7.27548 15.1875 7.19853 15.2506 7.181 15.3382L7.06115 15.9375ZM3.22657 4.51739L3.21637 4.52079C2.83281 4.64864 2.59022 4.7304 2.41385 4.81245C2.2506 4.88839 2.19808 4.94113 2.16865 4.98195C2.13923 5.02277 2.10581 5.08928 2.0854 5.26817C2.06334 5.46143 2.06249 5.71743 2.0625 6.12174L2.06251 6.17613C2.06251 6.51002 2.06317 6.71944 2.07916 6.87947C2.09391 7.02701 2.11821 7.08589 2.14022 7.1233C2.16224 7.16071 2.20191 7.21056 2.32372 7.29509C2.45585 7.38679 2.6386 7.48906 2.93047 7.65122L3.72974 8.09527C3.40905 6.91782 3.28026 5.65761 3.22657 4.51739ZM14.2705 8.09509C14.5912 6.91773 14.72 5.65762 14.7737 4.51747L14.7836 4.52079C15.1672 4.64864 15.4098 4.7304 15.5861 4.81245C15.7494 4.88839 15.8019 4.94113 15.8313 4.98195C15.8607 5.02277 15.8942 5.08928 15.9146 5.26817C15.9366 5.46143 15.9375 5.71743 15.9375 6.12174L15.9375 6.17613C15.9375 6.51002 15.9368 6.71944 15.9208 6.87947C15.9061 7.02701 15.8818 7.08589 15.8597 7.1233C15.8377 7.16071 15.7981 7.21056 15.6762 7.29509C15.5441 7.38679 15.3614 7.48906 15.0695 7.65122L14.2705 8.09509ZM9.00012 2.0625C7.69559 2.0625 6.6249 2.17739 5.81097 2.31472C4.90578 2.46744 4.71563 2.52457 4.51621 2.77019C4.31967 3.01224 4.30101 3.24117 4.34136 4.25754C4.40861 5.95152 4.63208 7.77955 5.32413 9.16981C5.66574 9.85608 6.11237 10.4165 6.69427 10.8068C7.27242 11.1945 8.01832 11.4375 9.00012 11.4375C9.98192 11.4375 10.7278 11.1945 11.306 10.8068C11.8879 10.4165 12.3345 9.85608 12.6761 9.16981C13.3682 7.77955 13.5916 5.95152 13.6589 4.25754C13.6992 3.24117 13.6806 3.01224 13.484 2.77019C13.2846 2.52457 13.0944 2.46744 12.1893 2.31472C11.3753 2.17739 10.3046 2.0625 9.00012 2.0625Z" fill="white"/>
</svg>
