<svg width="26" height="26" viewBox="0 0 26 26" fill="none" xmlns="http://www.w3.org/2000/svg">
<path fill-rule="evenodd" clip-rule="evenodd" d="M9.4872 5.19239C10.8638 2.38967 13.7471 0.458313 17.0834 0.458313C21.7548 0.458313 25.5417 4.24524 25.5417 8.91665C25.5417 10.1674 25.2697 11.357 24.7807 12.4275C24.6531 12.7069 24.6282 12.9708 24.6849 13.1829L24.8335 13.7382C25.3092 15.516 23.6828 17.1425 21.905 16.6668L21.3496 16.5182C21.1918 16.476 21.0052 16.479 20.805 16.5358C20.2099 21.607 15.8978 25.5416 10.6667 25.5416C9.09175 25.5416 7.59778 25.1844 6.26359 24.5456C5.99947 24.4192 5.73941 24.3935 5.52549 24.4508L4.09511 24.8335C2.3173 25.3092 0.690859 23.6827 1.16654 21.9049L1.54925 20.4745C1.60649 20.2606 1.58084 20.0006 1.45439 19.7364C0.815648 18.4022 0.458374 16.9083 0.458374 15.3333C0.458374 10.0943 4.40489 5.77711 9.4872 5.19239ZM11.5242 5.16049C16.5698 5.58011 20.5734 9.66928 20.8588 14.7519C21.165 14.7227 21.4833 14.7424 21.8019 14.8277L22.3573 14.9763C22.8343 15.1039 23.2706 14.6675 23.143 14.1906L22.9944 13.6352C22.8111 12.95 22.9306 12.2659 23.1889 11.7004C23.5757 10.8536 23.7917 9.91152 23.7917 8.91665C23.7917 5.21174 20.7883 2.20831 17.0834 2.20831C14.7711 2.20831 12.7308 3.37829 11.5242 5.16049ZM10.6667 6.87498C5.9953 6.87498 2.20837 10.6619 2.20837 15.3333C2.20837 16.6412 2.50461 17.8774 3.03282 18.9808C3.30746 19.5544 3.42263 20.2435 3.23979 20.9269L2.85707 22.3572C2.72945 22.8342 3.16581 23.2706 3.64278 23.143L5.07316 22.7602C5.75651 22.5774 6.4456 22.6926 7.01926 22.9672C8.12258 23.4954 9.35882 23.7916 10.6667 23.7916C15.3381 23.7916 19.125 20.0047 19.125 15.3333C19.125 10.6619 15.3381 6.87498 10.6667 6.87498Z" fill="white"/>
<path d="M7.75004 15.3333C7.75004 15.9776 7.22771 16.5 6.58337 16.5C5.93904 16.5 5.41671 15.9776 5.41671 15.3333C5.41671 14.689 5.93904 14.1666 6.58337 14.1666C7.22771 14.1666 7.75004 14.689 7.75004 15.3333Z" fill="white"/>
<path d="M11.8334 15.3333C11.8334 15.9776 11.311 16.5 10.6667 16.5C10.0224 16.5 9.50004 15.9776 9.50004 15.3333C9.50004 14.689 10.0224 14.1666 10.6667 14.1666C11.311 14.1666 11.8334 14.689 11.8334 15.3333Z" fill="white"/>
<path d="M15.9167 15.3333C15.9167 15.9776 15.3944 16.5 14.75 16.5C14.1057 16.5 13.5834 15.9776 13.5834 15.3333C13.5834 14.689 14.1057 14.1666 14.75 14.1666C15.3944 14.1666 15.9167 14.689 15.9167 15.3333Z" fill="white"/>
</svg>
