<svg width="18" height="18" viewBox="0 0 18 18" fill="none" xmlns="http://www.w3.org/2000/svg">
<path fill-rule="evenodd" clip-rule="evenodd" d="M9.00079 2.0625C5.16932 2.0625 2.06329 5.16852 2.06329 9C2.06329 12.8315 5.16932 15.9375 9.00079 15.9375C12.8323 15.9375 15.9383 12.8315 15.9383 9C15.9383 5.16852 12.8323 2.0625 9.00079 2.0625ZM0.938293 9C0.938293 4.5472 4.548 0.9375 9.00079 0.9375C13.4536 0.9375 17.0633 4.5472 17.0633 9C17.0633 13.4528 13.4536 17.0625 9.00079 17.0625C4.548 17.0625 0.938293 13.4528 0.938293 9ZM9.00079 3.9375C9.31145 3.9375 9.56329 4.18934 9.56329 4.5V4.73755C10.7861 4.9565 11.8133 5.87521 11.8133 7.125C11.8133 7.43566 11.5615 7.6875 11.2508 7.6875C10.9401 7.6875 10.6883 7.43566 10.6883 7.125C10.6883 6.4918 10.0332 5.8125 9.00079 5.8125C7.96843 5.8125 7.31329 6.4918 7.31329 7.125C7.31329 7.7582 7.96843 8.4375 9.00079 8.4375C10.4537 8.4375 11.8133 9.43713 11.8133 10.875C11.8133 12.1248 10.7861 13.0435 9.56329 13.2624V13.5C9.56329 13.8107 9.31145 14.0625 9.00079 14.0625C8.69013 14.0625 8.43829 13.8107 8.43829 13.5V13.2624C7.21547 13.0435 6.18829 12.1248 6.18829 10.875C6.18829 10.5643 6.44013 10.3125 6.75079 10.3125C7.06145 10.3125 7.31329 10.5643 7.31329 10.875C7.31329 11.5082 7.96843 12.1875 9.00079 12.1875C10.0332 12.1875 10.6883 11.5082 10.6883 10.875C10.6883 10.2418 10.0332 9.5625 9.00079 9.5625C7.54788 9.5625 6.18829 8.56287 6.18829 7.125C6.18829 5.87521 7.21547 4.9565 8.43829 4.73755V4.5C8.43829 4.18934 8.69013 3.9375 9.00079 3.9375Z" fill="white"/>
</svg>
