<svg width="18" height="18" viewBox="0 0 18 18" fill="none" xmlns="http://www.w3.org/2000/svg">
<path fill-rule="evenodd" clip-rule="evenodd" d="M9.00082 2.17537C8.91161 2.30774 8.80171 2.50288 8.63809 2.7964L8.53978 2.97275C8.53248 2.98585 8.52495 2.99953 8.51715 3.0137C8.43572 3.16168 8.3251 3.36269 8.14242 3.50137C7.95637 3.6426 7.73201 3.69199 7.57159 3.7273C7.55636 3.73066 7.54171 3.73388 7.52772 3.73705L7.33681 3.78024C6.98793 3.85918 6.77051 3.90971 6.62441 3.96078C6.71475 4.0965 6.86638 4.27577 7.11235 4.5634L7.24249 4.71558C7.25207 4.72678 7.26205 4.73833 7.27235 4.75025C7.38316 4.87853 7.53057 5.04918 7.59871 5.26828C7.66613 5.48511 7.64331 5.70944 7.62586 5.88092C7.62423 5.89693 7.62265 5.91248 7.62119 5.92752L7.60152 6.13057C7.56637 6.49331 7.54471 6.72795 7.54532 6.89394C7.68949 6.84284 7.88693 6.75315 8.18827 6.61441L8.36701 6.53211C8.38016 6.52605 8.39393 6.51961 8.40828 6.51289C8.55667 6.44346 8.76717 6.34495 9.00082 6.34495C9.23447 6.34495 9.44497 6.44346 9.59336 6.5129C9.60771 6.51961 9.62148 6.52605 9.63463 6.53211L9.81337 6.61441C10.1147 6.75315 10.3122 6.84285 10.4563 6.89394C10.4569 6.72795 10.4353 6.49331 10.4001 6.13057L10.3804 5.92752C10.379 5.91248 10.3774 5.89693 10.3758 5.88092C10.3583 5.70944 10.3355 5.48511 10.4029 5.26828C10.4711 5.04918 10.6185 4.87853 10.7293 4.75025C10.7396 4.73833 10.7496 4.72678 10.7591 4.71558L10.8893 4.5634C11.1353 4.27577 11.2869 4.0965 11.3772 3.96078C11.2311 3.90971 11.0137 3.85918 10.6648 3.78024L10.4739 3.73705C10.4599 3.73388 10.4453 3.73066 10.43 3.7273C10.2696 3.69199 10.0453 3.6426 9.85922 3.50137C9.67654 3.36269 9.56592 3.16167 9.48449 3.0137C9.47669 2.99953 9.46916 2.98585 9.46186 2.97275L9.36355 2.79639C9.19993 2.50288 9.09003 2.30774 9.00082 2.17537ZM10.6155 6.93765C10.6164 6.93767 10.6168 6.93771 10.6168 6.93772L10.6155 6.93765ZM7.38482 6.93772C7.38483 6.93771 7.38527 6.93767 7.38612 6.93765L7.38482 6.93772ZM8.16318 1.41363C8.32493 1.20241 8.58904 0.9375 9.00082 0.9375C9.4126 0.9375 9.67671 1.20241 9.83846 1.41363C9.99422 1.61703 10.1537 1.90313 10.3271 2.2143C10.3334 2.22571 10.3398 2.23715 10.3462 2.24863L10.4445 2.42499C10.4721 2.4745 10.4935 2.51278 10.5124 2.54559C10.5251 2.56764 10.5351 2.5843 10.5432 2.59715C10.5558 2.60063 10.5718 2.60477 10.5922 2.60975C10.6275 2.61834 10.6685 2.62763 10.7222 2.63978L10.9131 2.68298C10.9261 2.68592 10.9391 2.68886 10.9521 2.69179C11.2872 2.76757 11.6001 2.83829 11.8363 2.93139C12.0923 3.03227 12.4016 3.21407 12.5207 3.59729C12.638 3.97437 12.4936 4.29991 12.3478 4.53157C12.2108 4.74922 11.9993 4.99649 11.7695 5.2651L11.6141 5.44675C11.5776 5.4895 11.5494 5.52246 11.5255 5.55135C11.5059 5.57503 11.4923 5.59214 11.4826 5.60505C11.4839 5.64683 11.4892 5.70564 11.5002 5.81901L11.5236 6.06025C11.5585 6.41969 11.5903 6.74775 11.5788 7.00613C11.5668 7.27457 11.5035 7.63385 11.1844 7.87609C10.8561 8.1253 10.4893 8.0767 10.2292 8.00216C9.98569 7.9324 9.69315 7.79765 9.37948 7.65316C9.36731 7.64755 9.3551 7.64193 9.34286 7.63629L9.16412 7.55399C9.11385 7.53085 9.07538 7.51315 9.04195 7.49841C9.0255 7.49115 9.012 7.48539 9.00082 7.48079C8.98964 7.48539 8.97614 7.49115 8.95969 7.49841C8.92626 7.51315 8.88779 7.53085 8.83752 7.55399L8.65878 7.63629C8.64654 7.64193 8.63433 7.64755 8.62216 7.65316C8.30849 7.79765 8.01595 7.9324 7.77247 8.00216C7.51232 8.0767 7.14553 8.1253 6.81725 7.87609C6.49815 7.63385 6.43482 7.27457 6.42286 7.00613C6.41135 6.74775 6.44318 6.4197 6.47806 6.06028C6.47929 6.04758 6.48052 6.03484 6.48176 6.02207L6.50144 5.81901C6.51242 5.70564 6.51778 5.64683 6.51905 5.60505C6.50934 5.59214 6.49578 5.57503 6.47615 5.55135C6.45222 5.52246 6.42405 5.4895 6.3875 5.44675L6.25735 5.29456C6.24892 5.28471 6.24052 5.27488 6.23214 5.26509C6.00237 4.99648 5.79087 4.74922 5.65385 4.53157C5.50802 4.29991 5.36366 3.97437 5.48092 3.59729C5.60009 3.21407 5.90936 3.03227 6.16533 2.93139C6.40157 2.83829 6.71441 2.76757 7.04958 2.69179C7.06254 2.68886 7.07553 2.68592 7.08855 2.68298L7.27945 2.63978C7.33316 2.62763 7.37417 2.61834 7.40942 2.60975C7.42989 2.60477 7.44584 2.60064 7.45846 2.59715C7.4665 2.5843 7.47649 2.56764 7.48923 2.54559C7.50819 2.51278 7.52954 2.4745 7.55714 2.42499L7.65545 2.24863C7.66185 2.23715 7.66822 2.22571 7.67458 2.2143C7.84798 1.90313 8.00742 1.61703 8.16318 1.41363ZM3.00082 6.15121C3.03995 6.22345 3.12324 6.37091 3.25997 6.4747C3.4069 6.58624 3.58326 6.62338 3.65655 6.63881C3.66387 6.64035 3.67017 6.64168 3.6753 6.64284L3.69075 6.64633L3.66623 6.675C3.66247 6.67941 3.65793 6.68458 3.65274 6.69049C3.60131 6.74909 3.48635 6.88006 3.43331 7.05063C3.381 7.21885 3.39985 7.39112 3.40847 7.46984C3.40934 7.47786 3.41012 7.48491 3.41069 7.49089L3.4115 7.49923C3.34077 7.46539 3.18043 7.39123 3.00082 7.39123C2.82121 7.39123 2.66086 7.46539 2.59014 7.49923L2.59095 7.49089C2.59152 7.48491 2.5923 7.47786 2.59317 7.46984C2.60179 7.39112 2.62064 7.21885 2.56833 7.05063C2.51529 6.88006 2.40033 6.74908 2.3489 6.69049C2.34371 6.68458 2.33917 6.67941 2.33541 6.675L2.31089 6.64633L2.32633 6.64284C2.33147 6.64168 2.33777 6.64035 2.34509 6.63881C2.41838 6.62338 2.59474 6.58624 2.74167 6.4747C2.8784 6.37091 2.96169 6.22345 3.00082 6.15121ZM2.2022 6.09421L2.09579 5.62388L2.2022 6.09421ZM2.55532 7.97426C2.55548 7.97538 2.55553 7.97597 2.55552 7.97598L2.55532 7.97426ZM3.44612 7.97598C3.44611 7.97596 3.44616 7.97538 3.44632 7.97426L3.44612 7.97598ZM2.3587 5.03582C2.4552 4.9098 2.66005 4.6875 3.00082 4.6875C3.34159 4.6875 3.54644 4.9098 3.64294 5.03582C3.73375 5.1544 3.82273 5.31421 3.90461 5.46125C3.90949 5.47 3.91434 5.47872 3.91916 5.48737L3.95566 5.55283L4.01902 5.56717C4.02867 5.56936 4.03841 5.57155 4.04821 5.57377C4.20638 5.60946 4.38266 5.64924 4.52168 5.70403C4.67993 5.76639 4.93211 5.90248 5.02934 6.21513C5.12465 6.52164 5.00076 6.77513 4.91232 6.91562C4.83244 7.04252 4.71414 7.18072 4.60549 7.30764C4.59906 7.31516 4.59266 7.32264 4.58631 7.33007L4.53158 7.39406L4.54029 7.48391C4.54123 7.49364 4.54218 7.50342 4.54314 7.51324C4.55968 7.68325 4.57745 7.86574 4.57077 8.01558C4.56367 8.17501 4.52431 8.46343 4.26266 8.66206C3.99183 8.86766 3.69696 8.81713 3.53753 8.77145C3.39424 8.7304 3.22958 8.65447 3.08165 8.58626C3.07243 8.58201 3.06329 8.5778 3.05421 8.57362L3.00082 8.54903L2.94742 8.57362C2.93835 8.57779 2.92921 8.58201 2.91999 8.58626C2.77206 8.65447 2.6074 8.7304 2.46411 8.77145C2.30469 8.81713 2.00981 8.86766 1.73898 8.66206C1.47733 8.46343 1.43797 8.17501 1.43087 8.01558C1.42419 7.86574 1.44195 7.68325 1.4585 7.51324C1.45946 7.50342 1.46041 7.49364 1.46135 7.48391L1.47006 7.39406L1.41533 7.33007C1.40898 7.32264 1.40258 7.31516 1.39615 7.30764C1.2875 7.18072 1.16921 7.04252 1.08932 6.91562C1.00088 6.77513 0.876988 6.52164 0.972305 6.21513C1.06953 5.90248 1.32171 5.76639 1.47996 5.70403C1.61898 5.64924 1.79526 5.60946 1.95343 5.57377C1.96323 5.57155 1.97297 5.56936 1.98262 5.56717L2.04598 5.55283L2.08247 5.48737C2.0873 5.47872 2.09215 5.47001 2.09703 5.46125C2.1789 5.31421 2.26789 5.1544 2.3587 5.03582ZM15.0008 6.15121C15.0399 6.22345 15.1232 6.37091 15.26 6.4747C15.4069 6.58624 15.5833 6.62338 15.6565 6.63881C15.6639 6.64035 15.6702 6.64168 15.6753 6.64284L15.6907 6.64633L15.6662 6.675C15.6625 6.67941 15.6579 6.68458 15.6527 6.69049C15.6013 6.74909 15.4864 6.88006 15.4333 7.05063C15.381 7.21885 15.3999 7.39112 15.4085 7.46983C15.4093 7.47786 15.4101 7.48491 15.4107 7.49089L15.4115 7.49923C15.3408 7.46539 15.1804 7.39123 15.0008 7.39123C14.8212 7.39123 14.6609 7.46539 14.5901 7.49923L14.5909 7.49089C14.5915 7.48491 14.5923 7.47786 14.5932 7.46983C14.6018 7.39112 14.6206 7.21885 14.5683 7.05063C14.5153 6.88006 14.4003 6.74908 14.3489 6.69049C14.3437 6.68458 14.3392 6.67941 14.3354 6.675L14.3109 6.64633L14.3263 6.64284C14.3315 6.64168 14.3378 6.64035 14.3451 6.63881C14.4184 6.62338 14.5947 6.58624 14.7417 6.4747C14.8784 6.37091 14.9617 6.22345 15.0008 6.15121ZM14.5553 7.97427C14.5555 7.97547 14.5555 7.97605 14.5555 7.97597L14.5553 7.97427ZM14.3587 5.03582C14.4552 4.9098 14.6601 4.6875 15.0008 4.6875C15.3416 4.6875 15.5464 4.90981 15.6429 5.03582C15.7337 5.1544 15.8227 5.31421 15.9046 5.46124C15.9095 5.47 15.9143 5.47872 15.9192 5.48737L15.9557 5.55283L16.019 5.56717C16.0287 5.56936 16.0384 5.57155 16.0482 5.57377C16.2064 5.60946 16.3827 5.64924 16.5217 5.70403C16.6799 5.76639 16.9321 5.90248 17.0293 6.21513C17.1247 6.52164 17.0008 6.77513 16.9123 6.91562C16.8324 7.04252 16.7141 7.18073 16.6055 7.30766C16.5991 7.31517 16.5927 7.32264 16.5863 7.33007L16.5316 7.39406L16.5403 7.48391C16.5412 7.49364 16.5422 7.50342 16.5431 7.51324C16.5597 7.68325 16.5774 7.86574 16.5708 8.01558C16.5637 8.17501 16.5243 8.46343 16.2627 8.66206C15.9918 8.86766 15.697 8.81713 15.5375 8.77145C15.3942 8.7304 15.2296 8.65448 15.0817 8.58627C15.0724 8.58202 15.0633 8.5778 15.0542 8.57362L15.0008 8.54903L14.9474 8.57362C14.9384 8.57779 14.9292 8.58201 14.92 8.58625C14.7721 8.65447 14.6074 8.7304 14.4641 8.77145C14.3047 8.81713 14.0098 8.86766 13.739 8.66206C13.4773 8.46343 13.438 8.17501 13.4309 8.01558C13.4242 7.86574 13.442 7.68325 13.4585 7.51324C13.4595 7.50342 13.4604 7.49364 13.4614 7.48391L13.4701 7.39406L13.4153 7.33007C13.409 7.32264 13.4026 7.31516 13.3961 7.30764C13.2875 7.18072 13.1692 7.04252 13.0893 6.91562C13.0009 6.77513 12.877 6.52164 12.9723 6.21513C13.0695 5.90248 13.3217 5.76639 13.48 5.70403C13.619 5.64924 13.7953 5.60946 13.9534 5.57377C13.9632 5.57155 13.973 5.56936 13.9826 5.56717L14.046 5.55283L14.0825 5.48737C14.0873 5.47872 14.0922 5.47001 14.097 5.46125C14.1789 5.31421 14.2679 5.1544 14.3587 5.03582ZM15.4461 7.97598C15.4461 7.97592 15.4462 7.97534 15.4463 7.97427L15.4461 7.97598ZM6.51375 10.8361C7.91312 10.565 9.41112 10.6259 10.6233 11.3488C10.7935 11.4504 10.9531 11.5769 11.0924 11.7333C11.3743 12.05 11.5198 12.4435 11.5267 12.838C11.6702 12.7455 11.8139 12.6428 11.9598 12.5325L13.3152 11.5086C13.9937 10.9961 14.9796 10.996 15.6582 11.5084C16.2851 11.9818 16.5351 12.8314 16.0863 13.5508C15.7673 14.0621 15.2869 14.7693 14.798 15.2221C14.3038 15.6798 13.6005 16.0647 13.0684 16.3215C12.4223 16.6333 11.7245 16.8057 11.0459 16.9156C9.65902 17.1401 8.21589 17.1057 6.84456 16.8232C6.14376 16.6788 5.41548 16.6038 4.69577 16.6038H3.00082C2.69016 16.6038 2.43832 16.3519 2.43832 16.0413C2.43832 15.7306 2.69016 15.4788 3.00082 15.4788H4.69577C5.49235 15.4788 6.29668 15.5617 7.07157 15.7214C8.3106 15.9766 9.61589 16.0074 10.8661 15.805C11.4878 15.7044 12.0684 15.555 12.5794 15.3083C13.092 15.0609 13.6683 14.7351 14.0335 14.3967C14.4029 14.0546 14.8164 13.4609 15.1318 12.9553C15.227 12.8027 15.2138 12.5825 14.9803 12.4062C14.703 12.1968 14.2706 12.1969 13.9933 12.4063L12.6379 13.4302C12.0969 13.8389 11.4309 14.2762 10.6049 14.4079C10.5215 14.4212 10.4347 14.4334 10.3446 14.4441C10.3017 14.4519 10.2569 14.457 10.2107 14.4587C9.78901 14.5006 9.30061 14.5104 8.76177 14.4595C8.45248 14.4303 8.22543 14.1559 8.25464 13.8466C8.28384 13.5373 8.55824 13.3103 8.86752 13.3395C9.3381 13.3839 9.76029 13.3741 10.1185 13.3373C10.1258 13.3366 10.133 13.3358 10.1402 13.335C10.1552 13.3263 10.178 13.3105 10.208 13.2843C10.4476 13.0752 10.469 12.725 10.2521 12.4814C10.1971 12.4196 10.1294 12.3642 10.047 12.315C9.16111 11.7867 7.97799 11.6984 6.72773 11.9406C5.48458 12.1814 4.2495 12.7362 3.32621 13.391C3.07281 13.5707 2.7217 13.511 2.54199 13.2576C2.36228 13.0042 2.42202 12.6531 2.67543 12.4734C3.7242 11.7296 5.10727 11.1086 6.51375 10.8361Z" fill="white"/>
</svg>
