<svg width="18" height="18" viewBox="0 0 18 18" fill="none" xmlns="http://www.w3.org/2000/svg">
<path fill-rule="evenodd" clip-rule="evenodd" d="M0.937474 9C0.937474 4.5472 4.54718 0.9375 8.99997 0.9375C13.4528 0.9375 17.0625 4.5472 17.0625 9V12.7428C17.0625 12.7964 17.0625 12.8516 17.0625 12.9084C17.0625 12.9373 17.0625 12.9666 17.0625 12.9964V13.1355C17.0625 13.1657 17.0625 13.1956 17.0625 13.225C17.0627 13.9104 17.0628 14.3699 16.949 14.7728C16.7264 15.5605 16.1913 16.221 15.467 16.5814C15.096 16.7659 14.6524 16.839 14.0111 16.9447C13.9814 16.9496 13.9512 16.9545 13.9207 16.9596L13.9044 16.9623C13.6764 16.9999 13.4805 17.0323 13.3178 17.049C13.1481 17.0664 12.9733 17.0719 12.7941 17.035C12.2058 16.9139 11.7351 16.484 11.5377 15.9202C11.4781 15.7501 11.4568 15.5769 11.4469 15.4023C11.4375 15.2339 11.4375 15.0284 11.4375 14.7855V11.3904C11.4375 11.3647 11.4374 11.3393 11.4374 11.3142C11.4371 10.9565 11.4367 10.6594 11.5131 10.4055C11.6876 9.82481 12.1488 9.36901 12.7417 9.22657C13.0007 9.16437 13.2953 9.18911 13.6315 9.21733C13.6567 9.21945 13.6822 9.22159 13.7079 9.22371C13.7385 9.22623 13.7686 9.2287 13.7982 9.23114C14.4282 9.28292 14.8637 9.31871 15.2334 9.4617C15.4891 9.56059 15.7254 9.69572 15.9375 9.86059V9C15.9375 5.16852 12.8314 2.0625 8.99997 2.0625C5.1685 2.0625 2.06247 5.16852 2.06247 9V9.86059C2.27452 9.69572 2.51088 9.56059 2.76655 9.4617C3.1362 9.31871 3.5717 9.28292 4.20171 9.23114C4.23138 9.2287 4.26149 9.22623 4.29204 9.22371C4.31774 9.22159 4.34321 9.21945 4.36844 9.21733C4.70461 9.18911 4.99928 9.16437 5.2582 9.22657C5.85113 9.36901 6.31236 9.82481 6.4869 10.4055C6.5632 10.6594 6.56289 10.9565 6.56253 11.3142C6.5625 11.3393 6.56247 11.3647 6.56247 11.3904V14.7855C6.56248 15.0284 6.56248 15.2339 6.55301 15.4023C6.5432 15.5769 6.52183 15.7501 6.46226 15.9202C6.26483 16.484 5.79417 16.9139 5.20583 17.035C5.02662 17.0719 4.85183 17.0664 4.68219 17.049C4.51944 17.0323 4.32357 16.9999 4.09554 16.9623L4.0793 16.9596C4.04869 16.9545 4.01852 16.9496 3.98878 16.9447C3.34752 16.839 2.9039 16.7659 2.53292 16.5814C1.80862 16.221 1.27359 15.5605 1.05096 14.7728C0.953051 14.4263 0.939447 14.0379 0.937687 13.5L0.937474 13.3932C0.937422 13.3386 0.937439 13.2826 0.937456 13.225C0.937465 13.1956 0.937474 13.1657 0.937474 13.1355V12.9964C0.937474 12.9666 0.937465 12.9373 0.937457 12.9084C0.937441 12.8518 0.937425 12.7967 0.937474 12.7431V9ZM2.06247 13.1355C2.06247 13.9438 2.06772 14.2338 2.13356 14.4668C2.27317 14.9608 2.60433 15.3604 3.03402 15.5741C3.23383 15.6735 3.4951 15.7229 4.26259 15.8496C4.51138 15.8907 4.67289 15.9171 4.79711 15.9299C4.91829 15.9423 4.96233 15.9366 4.97888 15.9332C5.16199 15.8954 5.32751 15.7567 5.40047 15.5484C5.40951 15.5226 5.42245 15.4697 5.42978 15.3392C5.43727 15.2061 5.43747 15.0325 5.43747 14.77V11.3904C5.43747 10.9147 5.43139 10.8021 5.40951 10.7293C5.34461 10.5134 5.18068 10.365 4.99543 10.3205C4.93725 10.3065 4.84344 10.307 4.38461 10.3449C3.62866 10.4073 3.37036 10.4344 3.17241 10.5109C2.67208 10.7045 2.27871 11.1418 2.12782 11.7001C2.06734 11.9239 2.06247 12.2079 2.06247 12.9964V13.1355ZM8.99997 4.3125C9.31063 4.3125 9.56247 4.56434 9.56247 4.875L9.56247 8.625C9.56247 8.93566 9.31063 9.1875 8.99997 9.1875C8.68931 9.1875 8.43747 8.93566 8.43747 8.625L8.43747 4.875C8.43747 4.56434 8.68931 4.3125 8.99997 4.3125ZM6.74997 5.4375C7.06063 5.4375 7.31247 5.68934 7.31247 6V7.5C7.31247 7.81066 7.06063 8.0625 6.74997 8.0625C6.43931 8.0625 6.18747 7.81066 6.18747 7.5V6C6.18747 5.68934 6.43931 5.4375 6.74997 5.4375ZM11.25 5.4375C11.5606 5.4375 11.8125 5.68934 11.8125 6V7.5C11.8125 7.81066 11.5606 8.0625 11.25 8.0625C10.9393 8.0625 10.6875 7.81066 10.6875 7.5V6C10.6875 5.68934 10.9393 5.4375 11.25 5.4375ZM13.6153 10.3449C13.1565 10.307 13.0627 10.3065 13.0045 10.3205C12.8193 10.365 12.6553 10.5134 12.5904 10.7293C12.5686 10.8021 12.5625 10.9147 12.5625 11.3904V14.77C12.5625 15.0325 12.5627 15.2061 12.5702 15.3392C12.5775 15.4697 12.5904 15.5226 12.5995 15.5484C12.6724 15.7567 12.838 15.8954 13.0211 15.9332C13.0376 15.9366 13.0817 15.9423 13.2028 15.9299C13.3271 15.9171 13.4886 15.8907 13.7374 15.8496C14.5048 15.7229 14.7661 15.6735 14.9659 15.5741C15.3956 15.3604 15.7268 14.9608 15.8664 14.4668C15.9322 14.2338 15.9375 13.9438 15.9375 13.1355V12.9964C15.9375 12.2079 15.9326 11.9239 15.8721 11.7001C15.7212 11.1418 15.3279 10.7045 14.8275 10.5109C14.6296 10.4344 14.3713 10.4073 13.6153 10.3449Z" fill="white"/>
</svg>
