<svg xmlns="http://www.w3.org/2000/svg" viewBox="0 0 383.31 273.81"><title>Asset 1</title><g id="Layer_2" data-name="Layer 2"><g id="Layer_1-2" data-name="Layer 1"><path d="M191.77,0h163.6c13.41,0,24.31,8.63,27.27,21.5,3.79,16.51-8.94,32.86-25.9,33.23-.57,0-1.14,0-1.71,0H28.26C14.88,54.76,3.89,46.41.85,34A27.33,27.33,0,0,1,27.32,0Q79.93-.06,132.53,0Z"/><path d="M191.77,109.52h163.6c13.41,0,24.31,8.63,27.27,21.5,3.79,16.51-8.94,32.86-25.9,33.23-.57,0-1.14,0-1.71,0H28.26c-13.38,0-24.37-8.34-27.41-20.77a27.33,27.33,0,0,1,26.47-33.95q52.4-.11,104.79,0Z"/><path d="M191.54,273.77q-81.79,0-163.6,0c-13.4,0-24.32-8.65-27.27-21.49-3.79-16.52,9-32.88,25.9-33.24h1.71q163.38,0,326.77,0c13.67,0,24.53,8.45,27.56,21.39,3.88,16.6-8.9,33.11-26,33.31-14.47.17-28.94,0-43.41,0Z"/></g></g></svg>