<svg width="19" height="18" viewBox="0 0 19 18" fill="none" xmlns="http://www.w3.org/2000/svg">
<path fill-rule="evenodd" clip-rule="evenodd" d="M8.64022 1.33466C4.57438 1.74353 1.40625 5.01942 1.40625 9.00002C1.40625 13.2572 5.02995 16.7084 9.5 16.7084C13.6796 16.7084 17.1193 13.6911 17.5486 9.81886C16.3877 11.2224 14.586 12.125 12.5625 12.125C9.05894 12.125 6.21875 9.42007 6.21875 6.08335C6.21875 4.15617 7.16651 2.44027 8.64022 1.33466ZM0.09375 9.00002C0.09375 4.05247 4.30507 0.041687 9.5 0.041687C10.1271 0.041687 10.441 0.517735 10.4947 0.896909C10.5465 1.26167 10.4049 1.72557 9.96466 1.97891C8.50482 2.81902 7.53125 4.34321 7.53125 6.08335C7.53125 8.72972 9.78382 10.875 12.5625 10.875C14.3897 10.875 15.99 9.94781 16.8722 8.55749C17.1382 8.13822 17.6253 8.00339 18.0083 8.05265C18.4064 8.10386 18.9062 8.40283 18.9062 9.00002C18.9062 13.9476 14.6949 17.9584 9.5 17.9584C4.30507 17.9584 0.09375 13.9476 0.09375 9.00002Z" fill="white"/>
</svg>
