<svg xmlns="http://www.w3.org/2000/svg" viewBox="0 0 305.51 321.16"><defs><style>.cls-1{fill:#fff;}</style></defs><title>Asset 9</title><g id="Layer_2" data-name="Layer 2"><g id="Layer_2-2" data-name="Layer 2"><path class="cls-1" d="M.12,168.55C.47,124.47,16.34,87,48.35,56.56A144.85,144.85,0,0,1,92.77,27.74c5.39-2.26,11-1,14.34,3s4,10.09.8,14.26a18.71,18.71,0,0,1-7,5.29A131.09,131.09,0,0,0,51.66,88.67c-31.79,39.65-36.88,96.86-12,141,21.61,38.34,54.59,61,98.38,66.22,38.1,4.51,72.05-6.35,100.61-32.29,30.38-27.59,45.05-62.36,42.2-103.13-3.58-51.31-30.22-87.71-76.4-110-1-.49-2.08-.88-3-1.45a12.17,12.17,0,0,1-5.05-15.3c2.47-5.68,8.79-8.94,14.56-6.52a139.75,139.75,0,0,1,21.42,10.67c44,27.95,68.73,68.11,72.67,120,3.09,40.59-8.88,77.14-35.25,108.45s-60.07,49.34-100.6,53.79c-40.83,4.49-78-6-110.36-31.35C23.36,261.06,4.29,224.13.16,179.42-.17,175.83.12,172.18.12,168.55Z"/><path class="cls-1" d="M165.07,43.47c0,9.11.07,18.22,0,27.33a28.13,28.13,0,0,1-.94,7.38,12,12,0,0,1-22.94-.27,30.12,30.12,0,0,1-.84-7.4q-.1-27.15,0-54.29a32.59,32.59,0,0,1,.6-6.69c1.28-6,6-9.65,12.12-9.53a11.48,11.48,0,0,1,11.49,9.81,37.47,37.47,0,0,1,.54,6.7C165.11,25.5,165.08,34.48,165.07,43.47Z"/></g></g></svg>