<svg width="18" height="18" viewBox="0 0 18 18" fill="none" xmlns="http://www.w3.org/2000/svg">
<path fill-rule="evenodd" clip-rule="evenodd" d="M13.0543 0.937412C13.0891 0.937429 13.1243 0.937447 13.16 0.937447L13.6254 0.937446C14.279 0.937423 14.8256 0.937404 15.2597 0.995604C15.7185 1.05709 16.1352 1.19265 16.4705 1.52697C16.806 1.86152 16.9423 2.27763 17.0041 2.7358C17.0625 3.16901 17.0625 3.71419 17.0625 4.36564V4.8299C17.0625 4.86566 17.0625 4.90094 17.0625 4.93577C17.0629 5.7233 17.0632 6.27602 16.8531 6.78169C16.6431 7.28719 16.2511 7.67759 15.6923 8.23419C15.6676 8.2588 15.6426 8.28373 15.6172 8.30901L13.6149 10.3053L13.6847 10.4131C13.9799 10.8691 14.2191 11.2385 14.3918 11.557C14.5706 11.8869 14.6977 12.1964 14.7486 12.5388C14.8304 13.0891 14.7564 13.6549 14.5395 14.1746C14.459 14.3673 14.3198 14.5693 14.177 14.7534C14.0275 14.9463 13.8446 15.1565 13.6482 15.3705C13.2573 15.7964 12.788 16.2644 12.3714 16.6797L12.3031 16.7478C11.7632 17.2861 10.8272 17.1116 10.5392 16.3892C10.3685 15.9609 10.2994 15.7902 10.2129 15.6325C10.1328 15.4864 10.0408 15.3469 9.93784 15.2156C9.82828 15.0758 9.70025 14.9464 9.38275 14.6298L9.00415 14.2979C8.99885 14.2933 8.99365 14.2885 8.98854 14.2837C8.91844 14.2928 8.84728 14.2974 8.77488 14.2974C8.30127 14.2974 7.91054 14.0997 7.54221 13.8196C7.19381 13.5545 6.80727 13.1691 6.34514 12.7084L5.26017 11.6266C4.79807 11.166 4.41149 10.7806 4.14564 10.4332C3.86464 10.066 3.66568 9.67562 3.66568 9.20188C3.66568 9.11588 3.67227 9.03179 3.68509 8.94928L3.06227 8.32833C3.02596 8.29213 3.01142 8.27765 2.99707 8.26372C2.71682 7.9918 2.38709 7.77553 2.02547 7.62654C2.00695 7.61891 1.98785 7.61132 1.94012 7.59241L1.65614 7.47989C0.895977 7.17868 0.691352 6.19761 1.2717 5.61903L1.27699 5.61375C1.69356 5.19844 2.16287 4.73055 2.59009 4.34081C2.80476 4.14498 3.01552 3.96268 3.20896 3.81358C3.39369 3.6712 3.59604 3.5326 3.78897 3.45255C4.30963 3.23652 4.87619 3.16291 5.4272 3.24434C5.76987 3.29498 6.07979 3.42142 6.41062 3.59968C6.73002 3.7718 7.10044 4.01021 7.55786 4.30462L7.66862 4.3759L9.67283 2.3777C9.69808 2.35252 9.72299 2.32766 9.74757 2.30313C10.3062 1.74564 10.6976 1.35505 11.2041 1.14586C11.7105 0.936741 12.2639 0.937017 13.0543 0.937412ZM6.85313 5.18894C6.43313 4.91886 6.13081 4.72684 5.87696 4.59006C5.60765 4.44494 5.42728 4.38157 5.26273 4.35725C4.91912 4.30648 4.55811 4.35141 4.22011 4.49165C4.16962 4.5126 4.06332 4.57546 3.89574 4.70462C3.73688 4.82707 3.55167 4.9864 3.34829 5.17193C2.94123 5.54327 2.48828 5.99471 2.06598 6.41572C2.0636 6.4181 2.06284 6.41941 2.06277 6.41953C2.0627 6.41965 2.06277 6.41952 2.06277 6.41953C2.0627 6.41978 2.06216 6.422 2.06287 6.42541C2.06357 6.42881 2.06485 6.43068 2.0652 6.4311C2.06541 6.43126 2.06723 6.43268 2.07057 6.434L2.35836 6.54804C2.40114 6.56499 2.42763 6.57549 2.45403 6.58636C2.94749 6.78967 3.39768 7.0849 3.78048 7.45632C3.80097 7.4762 3.82114 7.49631 3.8537 7.52878L4.21202 7.88602C4.26106 7.8251 4.31227 7.7646 4.36515 7.70425C4.60648 7.42884 4.91654 7.11972 5.27546 6.76188L6.85313 5.18894ZM10.0909 13.7546L10.1515 13.8077L10.1902 13.8463C10.4832 14.1383 10.6648 14.3194 10.8233 14.5217C10.9639 14.7011 11.0897 14.8917 11.1993 15.0915C11.319 15.3098 11.4118 15.5401 11.5567 15.9034L11.5718 15.8883C11.9941 15.4672 12.4469 15.0156 12.8193 14.6098C13.0054 14.407 13.1652 14.2224 13.288 14.0641C13.4176 13.8969 13.4805 13.7912 13.5013 13.7412C13.6417 13.4049 13.6866 13.0458 13.6358 12.7042C13.6115 12.5409 13.5482 12.3615 13.4027 12.0932C13.2653 11.8396 13.0722 11.5375 12.8004 11.1174L11.219 12.6941C10.8515 13.0604 10.535 13.376 10.2531 13.6194C10.1993 13.6659 10.1453 13.7111 10.0909 13.7546ZM13.16 2.06245C12.2211 2.06245 11.9079 2.07235 11.6335 2.18568C11.3593 2.29893 11.1311 2.51245 10.4671 3.17439L6.08199 7.54637C5.70816 7.91908 5.42477 8.20202 5.21127 8.44567C4.99677 8.69046 4.88727 8.85804 4.83404 8.99042C4.80299 9.06762 4.79068 9.13425 4.79068 9.20188C4.79068 9.3297 4.83449 9.48216 5.03905 9.74946C5.25348 10.0297 5.58516 10.362 6.08199 10.8574L6.19984 10.9749L7.34771 9.83046C7.56771 9.61112 7.92387 9.61165 8.14321 9.83165C8.36255 10.0517 8.36201 10.4078 8.14201 10.6271L6.99654 11.7692L7.112 11.8843C7.6088 12.3796 7.9422 12.7103 8.22332 12.9242C8.49139 13.1281 8.64511 13.1724 8.77488 13.1724C8.83848 13.1724 8.90035 13.1617 8.96965 13.1362C9.1012 13.0878 9.26893 12.9829 9.51779 12.768C9.76572 12.5539 10.0543 12.2667 10.4378 11.8843L14.8229 7.51232C15.487 6.85019 15.7009 6.62289 15.8142 6.35007C15.9275 6.07744 15.9375 5.76633 15.9375 4.8299V4.40453C15.9375 3.70396 15.9363 3.23529 15.8892 2.88614C15.8443 2.55335 15.7673 2.41447 15.6762 2.32366C15.5849 2.23261 15.4449 2.15548 15.1103 2.11063C14.7597 2.06363 14.2892 2.06245 13.5867 2.06245H13.16ZM12.4978 5.49253C12.1485 5.14425 11.5814 5.14425 11.2321 5.49253C10.8837 5.83988 10.8837 6.40234 11.2321 6.74969C11.5814 7.09797 12.1485 7.09797 12.4978 6.74969C12.8462 6.40234 12.8462 5.83988 12.4978 5.49253ZM10.4378 4.69584C11.2262 3.90981 12.5037 3.90981 13.2921 4.69584C14.0814 5.4828 14.0814 6.75941 13.2921 7.54637C12.5037 8.3324 11.2262 8.3324 10.4378 7.54637C9.64843 6.75941 9.64843 5.4828 10.4378 4.69584Z" fill="white"/>
</svg>
