<svg xmlns="http://www.w3.org/2000/svg" viewBox="0 0 288.9 288.92"><defs><style>.cls-1{fill:#fff;}</style></defs><title>Asset 6</title><g id="Layer_2" data-name="Layer 2"><g id="Layer_2-2" data-name="Layer 2"><path class="cls-1" d="M231.73,211.36C249.39,229,266.88,246.51,284.4,264a13.9,13.9,0,0,1,3.77,14.76c-1.65,5.53-5.59,8.81-11.17,9.9-5.33,1-9.73-.91-13.52-4.72q-24.6-24.71-49.27-49.35a17.91,17.91,0,0,1-2.17-3.38C153.25,277.75,71.51,265.35,28.32,211.1A130.07,130.07,0,0,1,211.38,28.55C264.54,70.94,278.32,152.19,231.73,211.36Zm-.67-81.2c0-55.77-45.09-101.23-100.51-101.3C74.48,28.8,29.07,73.79,29,129.46,29,185.92,74,231.2,130.21,231.14,185.76,231.09,231.05,185.74,231.06,130.16Z"/></g></g></svg>