<svg width="16" height="17" viewBox="0 0 16 17" fill="none" xmlns="http://www.w3.org/2000/svg">
<path fill-rule="evenodd" clip-rule="evenodd" d="M3.11108 0.427333C3.11108 0.427311 3.11109 0.427355 3.11108 0.427333C3.0762 0.251288 2.92141 0.124396 2.74193 0.125002C2.5624 0.125609 2.40849 0.253372 2.37484 0.429712L2.37459 0.431001L2.37315 0.438187C2.3718 0.444911 2.36964 0.455416 2.36666 0.469291C2.3607 0.497062 2.3515 0.538189 2.33899 0.589388C2.31386 0.692164 2.27582 0.833582 2.22436 0.987986C2.11584 1.31363 1.96799 1.63307 1.7983 1.80392C1.6286 1.97476 1.31017 2.12477 0.985264 2.23549C0.831211 2.28798 0.690053 2.32698 0.587449 2.3528C0.536335 2.36566 0.495272 2.37514 0.467541 2.38128C0.453687 2.38435 0.443197 2.38659 0.436482 2.38799L0.429306 2.38947L0.428126 2.38971C0.252017 2.42455 0.125189 2.57934 0.125796 2.75887C0.126402 2.9384 0.254166 3.09231 0.430505 3.12595L0.431794 3.12621L0.43898 3.12764C0.445704 3.129 0.45621 3.13116 0.470084 3.13414C0.497856 3.14009 0.538982 3.14929 0.590181 3.16181C0.692958 3.18693 0.834376 3.22498 0.98878 3.27643C1.31443 3.38495 1.63386 3.5328 1.80471 3.7025C1.97556 3.87219 2.12556 4.19062 2.23628 4.51553C2.28877 4.66958 2.32777 4.81074 2.35359 4.91334C2.36646 4.96446 2.37593 5.00552 2.38208 5.03325C2.38515 5.04711 2.38738 5.0576 2.38878 5.06431L2.39026 5.07149L2.3905 5.07267C2.42534 5.24878 2.58013 5.3756 2.75966 5.375C2.93919 5.37439 3.0931 5.24663 3.12675 5.07029L3.127 5.069L3.12843 5.06181C3.12979 5.05509 3.13195 5.04458 3.13493 5.03071C3.14089 5.00294 3.15008 4.96181 3.1626 4.91061C3.18773 4.80784 3.22577 4.66642 3.27722 4.51201C3.38574 4.18637 3.53359 3.86693 3.70329 3.69608C3.87299 3.52524 4.19142 3.37523 4.51632 3.26451C4.67038 3.21202 4.81153 3.17302 4.91414 3.1472C4.96525 3.13434 5.00632 3.12486 5.03405 3.11872C5.0479 3.11565 5.05839 3.11342 5.0651 3.11201L5.07228 3.11053L5.07346 3.11029C5.07342 3.1103 5.0735 3.11028 5.07346 3.11029C5.24949 3.07539 5.3764 2.92061 5.37579 2.74113C5.37519 2.5616 5.24742 2.40769 5.07108 2.37405L5.06979 2.37379L5.06261 2.37236C5.05588 2.371 5.04538 2.36884 5.0315 2.36587C5.00373 2.35991 4.9626 2.35071 4.91141 2.33819C4.80863 2.31307 4.66721 2.27502 4.51281 2.22357C4.18716 2.11505 3.86772 1.9672 3.69688 1.7975C3.52603 1.62781 3.37603 1.30938 3.26531 0.98447C3.21281 0.830417 3.17382 0.68926 3.14799 0.586655C3.13513 0.535542 3.12566 0.494478 3.11951 0.466748C3.11644 0.452894 3.11421 0.442403 3.11281 0.435689L3.11132 0.428512L3.11108 0.427333ZM3.7979 2.74646C3.5708 2.63977 3.34268 2.50279 3.16834 2.32962C2.994 2.15646 2.85548 1.92927 2.74726 1.7029C2.64057 1.92999 2.50358 2.15811 2.33042 2.33245C2.15725 2.50679 1.93006 2.64532 1.70369 2.75354C1.93079 2.86023 2.15891 2.99721 2.33325 3.17038C2.50759 3.34354 2.64611 3.57073 2.75433 3.7971C2.86102 3.57001 2.998 3.34189 3.17117 3.16755C3.34434 2.99321 3.57153 2.85468 3.7979 2.74646Z" fill="white"/>
<path fill-rule="evenodd" clip-rule="evenodd" d="M13.2508 1.4375C13.5615 1.4375 13.8133 1.68934 13.8133 2V2.1875H14.0008C14.3115 2.1875 14.5633 2.43934 14.5633 2.75C14.5633 3.06066 14.3115 3.3125 14.0008 3.3125H13.8133V3.5C13.8133 3.81066 13.5615 4.0625 13.2508 4.0625C12.9401 4.0625 12.6883 3.81066 12.6883 3.5V3.3125H12.5008C12.1901 3.3125 11.9383 3.06066 11.9383 2.75C11.9383 2.43934 12.1901 2.1875 12.5008 2.1875H12.6883V2C12.6883 1.68934 12.9401 1.4375 13.2508 1.4375ZM7.99141 3.63521C7.74505 3.95691 7.46516 4.456 7.05225 5.19672L6.84335 5.57148C6.82987 5.59566 6.81652 5.6197 6.80327 5.64358C6.61488 5.98292 6.44455 6.28974 6.16906 6.49888C5.89025 6.71053 5.55105 6.78661 5.18371 6.86899C5.15788 6.87478 5.13191 6.88061 5.1058 6.88651L4.70013 6.9783C3.897 7.16002 3.36028 7.28311 2.99487 7.42711C2.64006 7.56693 2.59251 7.67087 2.57453 7.72871C2.55463 7.79268 2.5382 7.91746 2.75109 8.25563C2.9678 8.59988 3.33528 9.03185 3.88186 9.671L4.15842 9.9944C4.17568 10.0146 4.19285 10.0346 4.2099 10.0545C4.46279 10.3492 4.68838 10.6122 4.79203 10.9455C4.89499 11.2766 4.86083 11.6236 4.82208 12.0172C4.81947 12.0437 4.81684 12.0705 4.81422 12.0974L4.77241 12.5289C4.68985 13.3809 4.63527 13.9585 4.6537 14.3723C4.67209 14.7852 4.75859 14.8688 4.79856 14.8991C4.82936 14.9225 4.91199 14.9831 5.28137 14.8773C5.65798 14.7694 6.16176 14.5392 6.91378 14.1929L7.29361 14.018C7.31855 14.0066 7.34335 13.9951 7.36803 13.9837C7.70948 13.8256 8.02764 13.6783 8.37579 13.6783C8.72395 13.6783 9.04212 13.8256 9.38356 13.9837C9.40824 13.9951 9.43304 14.0066 9.45798 14.018L9.83781 14.1929C10.5898 14.5392 11.0936 14.7694 11.4702 14.8773C11.8396 14.9831 11.9222 14.9225 11.953 14.8991C11.993 14.8688 12.0795 14.7852 12.0979 14.3723C12.1163 13.9585 12.0617 13.3809 11.9792 12.5289L11.9374 12.0974C11.9347 12.0705 11.9321 12.0437 11.9295 12.0172C11.8908 11.6236 11.8566 11.2766 11.9596 10.9455C12.0632 10.6122 12.2888 10.3492 12.5417 10.0545C12.5587 10.0346 12.5759 10.0146 12.5932 9.9944L12.8697 9.671C13.4163 9.03185 13.7838 8.59988 14.0005 8.25563C14.2134 7.91746 14.197 7.79268 14.1771 7.72871C14.1591 7.67087 14.1115 7.56693 13.7567 7.42711C13.3913 7.28311 12.8546 7.16002 12.0515 6.9783L11.6458 6.88651C11.6197 6.88061 11.5937 6.87478 11.5679 6.86899C11.2005 6.7866 10.8613 6.71053 10.5825 6.49888C10.307 6.28974 10.1367 5.98292 9.94832 5.64358C9.93506 5.6197 9.92172 5.59566 9.90824 5.57148L9.69933 5.19672C9.28642 4.456 9.00654 3.95691 8.76018 3.63521C8.5141 3.31387 8.40785 3.3125 8.37579 3.3125C8.34373 3.3125 8.23748 3.31387 7.99141 3.63521ZM7.09822 2.95121C7.40679 2.54827 7.80423 2.1875 8.37579 2.1875C8.94736 2.1875 9.34479 2.54827 9.65336 2.95121C9.95574 3.34607 10.2749 3.91865 10.6593 4.60836L10.8909 5.02372C11.1448 5.47921 11.1999 5.55508 11.2628 5.60282C11.3221 5.64789 11.4001 5.67749 11.894 5.78925L12.3463 5.89157C13.0906 6.05994 13.7134 6.20084 14.1692 6.38045C14.645 6.56798 15.0828 6.85265 15.2513 7.39465C15.418 7.93051 15.2275 8.41816 14.9526 8.85497C14.6866 9.27749 14.2636 9.77202 13.7545 10.3674L13.4482 10.7256C13.114 11.1163 13.0598 11.1959 13.0338 11.2796C13.007 11.3656 13.0066 11.4681 13.0571 11.9889L13.1033 12.4653C13.1804 13.261 13.2442 13.919 13.2218 14.4224C13.1989 14.9361 13.0816 15.4548 12.6332 15.7952C12.1757 16.1425 11.6471 16.0982 11.1603 15.9588C10.6906 15.8242 10.1078 15.5558 9.41105 15.235L8.98747 15.0399C8.52309 14.8261 8.44472 14.8033 8.37579 14.8033C8.30687 14.8033 8.2285 14.8261 7.76412 15.0399L7.34053 15.235C6.64379 15.5558 6.06101 15.8242 5.59125 15.9588C5.10446 16.0982 4.57589 16.1425 4.11834 15.7952C3.66997 15.4548 3.5527 14.9361 3.52981 14.4224C3.50739 13.919 3.57118 13.261 3.6483 12.4653L3.69447 11.9889C3.74494 11.4681 3.74454 11.3656 3.71778 11.2796C3.69176 11.1959 3.63756 11.1163 3.30342 10.7256L2.99708 10.3673C2.48794 9.77201 2.06501 9.27748 1.79903 8.85497C1.52405 8.41816 1.33363 7.93051 1.50027 7.39465C1.66882 6.85265 2.10654 6.56798 2.58239 6.38045C3.03817 6.20084 3.661 6.05994 4.40531 5.89157L4.85754 5.78925C5.35148 5.67749 5.42947 5.64789 5.48883 5.60282C5.55173 5.55508 5.6068 5.47921 5.86071 5.02372L6.09225 4.60836C6.47669 3.91865 6.79584 3.34607 7.09822 2.95121Z" fill="white"/>
</svg>
