<svg xmlns="http://www.w3.org/2000/svg" viewBox="0 0 232.48 232.44"><defs><style>.cls-1{fill:#fff;}.cls-2{fill:#828282;}</style></defs><title>Asset 7</title><g id="Layer_2" data-name="Layer 2"><g id="Layer_2-2" data-name="Layer 2"><path class="cls-1" d="M75.82,0C81.6,0,86,3,88.38,8.92c4.25,10.65,8.5,21.31,12.56,32a15.72,15.72,0,0,0,9.74,9.63c10.83,4.15,21.63,8.38,32.37,12.77,9.55,3.91,11.58,15.73,3.89,22.28a16.54,16.54,0,0,1-4.54,2.53c-10.65,4.28-21.3,8.56-32,12.66a15.46,15.46,0,0,0-9.4,9.47c-4,10.48-8.17,20.91-12.33,31.33C86,148.32,82,151.3,75.89,151.32s-10.29-3.2-13-10c-4-10.34-8.2-20.63-12.17-31a15.5,15.5,0,0,0-9.39-9.49Q25.12,94.63,9,88.09C1,84.84-2.31,76.93,1.7,69.81A16.31,16.31,0,0,1,9,63.37c10.63-4.62,21.48-8.74,32.31-12.89a15,15,0,0,0,9.22-9.12c4.1-10.72,8.38-21.36,12.61-32C65.62,3.15,69.87,0,75.82,0Z"/><path class="cls-2" d="M180.73,128.62c3.54-.06,5.41,2,6.61,5.08,3.09,7.89,6.34,15.73,9.3,23.68a11.23,11.23,0,0,0,7.12,7.08c7.82,2.92,15.55,6.1,23.35,9.12,3.18,1.22,5.35,3.11,5.37,6.81s-2.15,5.56-5.35,6.8c-7.91,3.06-15.74,6.32-23.67,9.33a10.58,10.58,0,0,0-6.66,6.55c-3,7.93-6.25,15.77-9.25,23.7-1.28,3.37-3.39,5.71-7.06,5.67-3.5-.05-5.52-2.34-6.75-5.57-3-7.81-6.19-15.52-9.11-23.35a11.19,11.19,0,0,0-7.1-7.09c-7.72-2.84-15.32-6-23-9-3.25-1.26-5.84-3.07-5.88-6.89s2.36-5.74,5.68-7c7.57-2.91,15-6.1,22.64-8.88a11.92,11.92,0,0,0,7.7-7.49c3-7.94,6.23-15.77,9.31-23.67C175.2,130.36,177.25,128.54,180.73,128.62Z"/></g></g></svg>