<svg xmlns="http://www.w3.org/2000/svg" viewBox="0 0 16 13"><title>Asset 1</title><g id="Layer_2" data-name="Layer 2"><g id="Layer_1-2" data-name="Layer 1"><path d="M13.91,5.25l.27.15C15.3,6,16,6.43,16,7.2s-.57,1.21-1.67,2l-.25.19a2,2,0,0,0-.38.31,2.36,2.36,0,0,0-.11.54l-.05.34a7,7,0,0,1-.27,1.12,1.66,1.66,0,0,1-.72,1.13A1.07,1.07,0,0,1,12,13a3.41,3.41,0,0,1-.87-.17L6.21,11.4a5.23,5.23,0,0,1-2-1.15L4,10a2,2,0,0,0-.34-.28,1.7,1.7,0,0,0-.41.06l-.31,0c-1.28.24-2.06.38-2.52-.26S.24,8.32.73,6.92L.84,6.6A2.35,2.35,0,0,0,1,6.07,2.47,2.47,0,0,0,.8,5.58L.67,5.27C.1,4-.21,3.28.16,2.64S1.33,2,2.62,2.05h.3a1.92,1.92,0,0,0,.43,0,2.51,2.51,0,0,0,.34-.34l.21-.25C4.85.41,5.38-.17,6.1,0h0l6,1.74c.7.2.87.93,1.21,2.39l.08.33a2.39,2.39,0,0,0,.14.5,2,2,0,0,0,.39.25m-6.72,5.4,4.2,1.22c.43.12.59.16.67.12s.12-.13.26-.57a6.64,6.64,0,0,0,.23-1l0-.33c0-.11,0-.21.05-.3l-5-1.45c0,.05,0,.1,0,.16l-.06.34A10.64,10.64,0,0,1,7.19,10.65ZM7.7,4.54l-.27-.16a1.9,1.9,0,0,1-.7-.53A2.19,2.19,0,0,1,6.42,3l-.08-.33A5.3,5.3,0,0,0,5.82,1h0A5.35,5.35,0,0,0,4.65,2.14l-.22.24a2.25,2.25,0,0,1-.68.6,1.84,1.84,0,0,1-.87.08H2.57C1.79,3,1.12,3,1,3.15s.18.87.55,1.72l.14.3A2.58,2.58,0,0,1,2,6a2.79,2.79,0,0,1-.21.89l-.11.32c-.3.86-.56,1.61-.43,1.78s.84,0,1.51-.14l.3-.06a3.71,3.71,0,0,1,.59-.07,1,1,0,0,1,.29,0,1.93,1.93,0,0,1,.74.5l.24.21a4.62,4.62,0,0,0,1.32.84,8.74,8.74,0,0,0,.34-1.64l0-.34a2.48,2.48,0,0,1,.23-.88,2.16,2.16,0,0,1,.65-.62l.26-.19C8.49,6.13,9,5.73,9,5.5S8.46,5,7.7,4.54m.61,3L13.1,8.9l.38-.29.26-.2C14.48,7.87,15,7.47,15,7.24s-.56-.53-1.32-1l-.21-.12-3.5-1a1.35,1.35,0,0,1,0,.29c0,.75-.58,1.2-1.67,2ZM8.14,3.64l4.29,1.19,0-.1-.07-.33a5.37,5.37,0,0,0-.52-1.66L7.05,1.36c.09.3.17.66.27,1.07l.07.33a2.34,2.34,0,0,0,.15.51,2.16,2.16,0,0,0,.38.25Z"/></g></g></svg>