<svg xmlns="http://www.w3.org/2000/svg" viewBox="0 0 94.68 77"><defs><style>.cls-1{fill:#fff;}</style></defs><title>Asset 1</title><g id="Layer_2" data-name="Layer 2"><g id="Layer_3" data-name="Layer 3"><path class="cls-1" d="M47.42.05c6.62,0,13.24-.12,19.85,0A73.56,73.56,0,0,1,78.66,1.16c8.63,1.58,13.62,6.69,15.07,15.36a103.71,103.71,0,0,1,.94,10.74c.14,2.53-1.24,4.21-3.45,5.28-.46.22-1,.35-1.45.53a5.74,5.74,0,0,0,.08,10.87c.44.17.92.27,1.34.48,2.2,1.07,3.64,2.74,3.47,5.27a100,100,0,0,1-1.1,11.49C92.06,69.39,87,74.35,78.8,75.8a74,74,0,0,1-12.16,1.1q-19.24.21-38.49,0a77.31,77.31,0,0,1-12-1.07c-8.35-1.41-13.46-6.46-15-14.78A90.18,90.18,0,0,1,0,49.66c-.13-2.43,1.25-4.16,3.43-5.2.47-.21,1-.35,1.45-.52a5.79,5.79,0,0,0,0-10.89,14.77,14.77,0,0,1-1.85-.72,5.28,5.28,0,0,1-3.08-5A57.53,57.53,0,0,1,1.29,14.88C3.32,6.66,8.77,2.19,16.93,1A95.7,95.7,0,0,1,28.78.08C35-.07,41.21,0,47.42,0Zm-.1,70.79c5.59,0,11.18.11,16.76,0a126.22,126.22,0,0,0,12.74-.9c6.42-.84,9.83-4.28,10.87-10.65.41-2.53.47-5.12.79-7.66a1.63,1.63,0,0,0-1.21-2.06,11.89,11.89,0,0,1,.13-22.17c.64-.26,1.23-.46,1.14-1.36-.23-2.34-.35-4.69-.63-7C87,11.64,83.76,8.11,76.46,7a82.18,82.18,0,0,0-11.31-.83Q47.29,6,29.42,6.2a85.42,85.42,0,0,0-11.63.89C11.46,8,8.31,11.11,7.1,17.4a67.93,67.93,0,0,0-.85,7.54c-.15,1.9-.06,1.89,1.66,2.67a11.72,11.72,0,0,1,7,11.39A11.56,11.56,0,0,1,7.26,49.62a1.38,1.38,0,0,0-1,1.57c.29,2.78.38,5.58.87,8.32,1.13,6.31,4.46,9.58,10.84,10.41a126.21,126.21,0,0,0,12.74.89C36.22,71,41.77,70.84,47.32,70.84Z"/><path class="cls-1" d="M35.34,48.42c.1-1.14.16-2.28.3-3.4a3.18,3.18,0,0,0-.92-2.7A27.25,27.25,0,0,1,32.13,39c-2.26-3.42-1.08-6.82,2.81-8.15A37.06,37.06,0,0,1,39,29.83a2.43,2.43,0,0,0,1.75-1.33,36.85,36.85,0,0,1,2.41-3.95c2.44-3.28,6-3.26,8.44,0a30.41,30.41,0,0,1,2.23,3.67A2.84,2.84,0,0,0,56,29.89,25.32,25.32,0,0,1,60,31c3.67,1.35,4.78,4.73,2.62,8-.89,1.34-2,2.51-3,3.83a3.55,3.55,0,0,0-.57,1.88,56,56,0,0,1,0,6.35,4.42,4.42,0,0,1-5.64,3.67,30.31,30.31,0,0,1-4.84-1.8,2.84,2.84,0,0,0-2.51,0,27,27,0,0,1-4.72,1.8,4.72,4.72,0,0,1-6-4.6c0-.55,0-1.1,0-1.65Zm6.26-.51c2-.63,3.83-1.66,5.69-1.67s3.73,1,5.76,1.6c0-2.08-.45-4.29.13-6.17s2.21-3.43,3.36-5.11c-1.91-.67-4.07-1-5.6-2.09s-2.42-3.11-3.57-4.69c-1.17,1.59-2.07,3.58-3.61,4.7S40,35.91,38,36.61c.75.9,1.44,1.8,2.21,2.62a6.39,6.39,0,0,1,1.66,5.7C41.7,45.89,41.68,46.88,41.6,47.91Z"/></g></g></svg>