<svg xmlns="http://www.w3.org/2000/svg" viewBox="0 0 1752 1425.6"><title>Asset 4</title><g id="Layer_2" data-name="Layer 2"><g id="Layer_1-2" data-name="Layer 1"><path d="M0,934.08v-6.72a26.25,26.25,0,0,0,1.79-9.81,93.13,93.13,0,0,1,3-22.77c3.06-12.06,7.82-23.37,16-32.89,7.33-8.5,15.38-16.27,25-22.2q14.7-9,29.47-18c12.32-7.41,25.09-14,37.44-21.4a101.7,101.7,0,0,0,48.72-101.14c-4.08-30-18.78-53.64-43.63-70.89-5.1-3.54-10.55-6.59-15.91-9.76-3.72-2.2-7.56-4.17-11.32-6.29-15-8.46-30-17-44.5-26.44a118,118,0,0,1-25.35-22.55,67,67,0,0,1-7.29-10.66A93.17,93.17,0,0,1,1.88,510c-.16-4.32-.39-8.58-1.88-12.68v-5.76a83.83,83.83,0,0,0,1.65-9.34q1.17-17.24,2-34.47,1.59-33.79,4.8-67.45c1.75-18,3.94-35.91,6.76-53.76a571.56,571.56,0,0,1,13.69-64.19c7.51-27,17.37-53.15,30.66-77.91a298.78,298.78,0,0,1,50.64-69,313.28,313.28,0,0,1,88.87-62.76c31.92-15.23,65.5-25.3,100-32.48,13.3-2.76,26.66-5.21,40.14-7,12.36-1.59,24.73-3.15,37.13-4.47,9.37-1,18.78-1.69,28.19-2.35C417.77,5.49,431,4.61,444.26,3.9c11-.6,22-1,33.07-1.37,17.1-.55,34.2-1.1,51.3-1.43,15.35-.31,30.7-.3,46-.49a30.37,30.37,0,0,0,4.2-.61H1176a14.5,14.5,0,0,0,2.71.61c4.16.11,8.31.13,12.47.19,18.87.29,37.74.42,56.61.92,21.9.59,43.8,1.28,65.68,2.34,20.12,1,40.22,2.38,60.28,4.34,16.24,1.59,32.43,3.38,48.56,5.88a606.87,606.87,0,0,1,61.48,12.63c28.83,7.6,56.71,17.73,83.15,31.63A309.47,309.47,0,0,1,1645.56,117c27.41,28.23,48.1,60.87,63.22,97.12,14.66,35.17,23.65,71.89,29.78,109.39,2.46,15,4.58,30,6,45.16,1.53,16.39,3.18,32.79,4.33,49.21s2.28,32.55,2.25,48.88a35.1,35.1,0,0,0,.86,5.61v45.12a9.92,9.92,0,0,0-.84,2.63,50.54,50.54,0,0,1-2.08,11.78c-2.92,10.92-7.24,21.23-14.46,30a108.32,108.32,0,0,1-23.45,21.83c-5.31,3.55-10.63,7.13-16.15,10.34-14.51,8.45-29.16,16.66-43.69,25.06-5.25,3-10.41,6.23-15.49,9.55a84.41,84.41,0,0,0-15.39,13c-21.7,23.16-31.22,50.58-27.93,82.17,2.76,26.45,14.51,48.41,34.43,66,6.75,6,14.36,10.72,22.15,15.12,19.07,10.77,38.28,21.27,56.77,33.06a127.5,127.5,0,0,1,23.61,19.49c12.75,13.31,19.53,29.38,21.65,47.56a21,21,0,0,0,.87,3.14v45.12c-1.23,1.88-.83,4-.9,6.05-.18,6.07-.09,12.16-.42,18.23-.7,12.77-1.54,25.54-2.44,38.31-.66,9.41-1.29,18.83-2.31,28.21q-2.42,22.17-5.37,44.28a563.1,563.1,0,0,1-11.69,61.21c-7.29,29.42-17.11,57.94-30.9,85-20,39.35-47.18,72.92-81.9,100.3-26.85,21.17-56.48,37.35-88.39,49.47-38.77,14.72-79,23.24-120,28.73-12.67,1.71-25.42,3-38.15,4.09-15,1.34-30,2.63-45,3.42q-34,1.8-68.08,2.85c-24,.72-48,1-72,1.48-1.58,0-3.22-.26-4.67.69H574.08a17.27,17.27,0,0,0-3.21-.66c-16.46-.38-32.93-.77-49.39-1-33.43-.53-66.83-1.67-100.18-3.92-14.2-1-28.4-1.92-42.57-3.25-16.87-1.58-33.69-3.6-50.43-6.33a596.49,596.49,0,0,1-63.7-13.64c-29.84-8.26-58.55-19.33-85.58-34.55a307.79,307.79,0,0,1-69.55-53.08c-27.4-28-48.16-60.42-63.39-96.44-14.52-34.36-23.54-70.25-29.76-106.92-2.91-17.18-5.34-34.44-6.94-51.8-1.57-17-3.18-34.07-4.35-51.14-1.32-19.3-2.19-38.63-3.21-58A42.47,42.47,0,0,0,0,934.08ZM1630.65,490.85c0-2.13.09-4,0-5.93-.2-3.51-.56-7-.76-10.53-.84-14.85-1.59-29.7-2.47-44.55q-1.83-30.9-5.8-61.61c-2.22-17.45-5-34.81-8.87-52-4.39-19.7-10.09-39-18.25-57.5-17.88-40.52-46.14-71.44-85.37-92.17-18.48-9.76-38.12-16.43-58.31-21.61-25.13-6.45-50.74-10.28-76.47-13.28q-25.24-2.94-50.63-4.7c-19-1.32-38-2.33-57-2.89q-46.29-1.36-92.59-1.92c-26.71-.35-53.43-.29-80.15-.29q-211.91,0-423.8,0-53.74,0-107.5.61c-20,.18-40,.68-60,1.19-14.08.36-28.15.83-42.2,1.51-12.94.63-25.87,1.53-38.79,2.45-8.77.62-17.55,1.29-26.29,2.26-11.6,1.28-23.17,2.84-34.74,4.32A486.14,486.14,0,0,0,307.39,144c-18.37,4.46-36.31,10.18-53.46,18.21q-60.44,28.32-90.2,88.06c-8.2,16.55-14.1,33.93-18.78,51.75-6.39,24.33-10.47,49.09-13.29,74.05q-2.82,25-4.65,50.16c-1.43,19.94-2.32,39.91-3.4,59.88-.09,1.71-.43,3.5.46,5,16,9,31.9,18,47.76,26.93,62,35.05,107.95,100.2,113,180.6a214.88,214.88,0,0,1-5.93,67.13C263.33,827,228.15,873.62,174,905.91c-15.64,9.33-31.74,17.91-47.63,26.85-.94.53-1.82,1.19-2.69,1.76,0,2.14-.1,4.05,0,6,.23,4,.64,8,.85,12,.69,12.94,1.28,25.88,2,38.82,1,18.36,2.69,36.68,4.77,55,2.16,19.07,5,38,8.89,56.84a331.44,331.44,0,0,0,16.42,56.07c19.9,49.64,54.16,85.36,103.33,106.62,18.4,8,37.57,13.5,57.13,17.75,15.47,3.37,31.1,5.8,46.78,8,19.65,2.75,39.37,4.79,59.14,6.25q24.17,1.79,48.38,2.8c20.77.86,41.56,1.57,62.35,1.88,36.31.53,72.62.95,108.93,1q208.3.16,416.6,0,56.14,0,112.3-.52c26.87-.23,53.74-.59,80.6-1.27,24.31-.61,48.61-1.54,72.85-3.53,15.77-1.3,31.56-2.52,47.29-4.27,17-1.89,33.94-4.29,50.76-7.46a372.25,372.25,0,0,0,55.16-14.34c19.56-6.9,38-15.88,54.81-28.2,27.58-20.28,47.91-46.32,61.58-77.65,10-22.84,16.31-46.75,21-71.14,3-15.39,5.38-30.87,7-46.47s3.22-31.18,4.43-46.8c1.08-13.87,1.59-27.79,2.39-41.68.4-7,.91-14,1.33-21.07.1-1.55,0-3.12,0-4.45-.73-.53-1.1-.85-1.51-1.08-15.34-8.6-30.73-17.12-46-25.8-41.28-23.46-72.44-56.49-92.85-99.37-16.62-34.94-23.41-71.84-20.89-110.48a214.12,214.12,0,0,1,10.4-54.5c18.6-55.51,53.63-97.53,104.49-126.4C1599.66,508.24,1615,499.66,1630.65,490.85Z"/><path d="M1182.83,468.43c-.18,16.74-6,31.18-17.73,43.21-.67.68-1.36,1.35-2,2Q920.62,756.13,678.17,998.59a69,69,0,0,1-15,11.86c-36.08,20.19-82.44.63-90.67-41.7-4-20.84,1.68-39.26,16.3-54.79,1-1,2-2,3.05-3.06Q834,668.8,1076,426.69a70.49,70.49,0,0,1,13.75-11.14c35.22-20.85,81.79-2.91,91.6,39.05A51.35,51.35,0,0,1,1182.83,468.43Z"/><path d="M674.1,427.81c37,.1,70,25.4,79,61.16a82.56,82.56,0,0,1-33.65,87.95,78.19,78.19,0,0,1-47,14.13c-39.65-1-67.54-27.52-76.29-58-8.56-29.79-2.85-56.73,18.29-79.72,12.67-13.77,28.68-21.68,47.22-24.32C665.81,428.4,670,428.19,674.1,427.81Z"/><path d="M1161.68,916.54A80.25,80.25,0,0,1,1100.45,995c-38.18,9.25-79.94-9.92-95.78-48-11.76-28.28-6-61.79,14.92-85.12a81.28,81.28,0,0,1,50.06-26.82c40-5.9,77.22,19,88.66,57.81A78.52,78.52,0,0,1,1161.68,916.54Z"/></g></g></svg>