<svg width="15" height="15" viewBox="0 0 15 15" fill="none" xmlns="http://www.w3.org/2000/svg">
<path d="M8.53033 7.53035C8.23744 7.82325 7.76256 7.82325 7.46967 7.53035C7.17678 7.23746 7.17678 6.76259 7.46967 6.46969C7.76256 6.1768 8.23744 6.1768 8.53033 6.46969C8.82322 6.76259 8.82322 7.23746 8.53033 7.53035Z" fill="white"/>
<path d="M6.40901 4.34837C6.11612 4.64127 5.64124 4.64127 5.34835 4.34837C5.05546 4.05548 5.05546 3.58061 5.34835 3.28771C5.64124 2.99482 6.11612 2.99482 6.40901 3.28771C6.7019 3.58061 6.7019 4.05548 6.40901 4.34837Z" fill="white"/>
<path d="M11.7123 9.65167C11.4194 9.94457 10.9445 9.94457 10.6517 9.65167C10.3588 9.35878 10.3588 8.88391 10.6517 8.59101C10.9445 8.29812 11.4194 8.29812 11.7123 8.59101C12.0052 8.88391 12.0052 9.35878 11.7123 9.65167Z" fill="white"/>
<path fill-rule="evenodd" clip-rule="evenodd" d="M5.07816 1.23772C4.36521 1.11586 3.93995 1.24896 3.71694 1.47198C3.54964 1.63927 3.43398 1.91404 3.43688 2.3488C3.4398 2.78639 3.56484 3.33949 3.82763 3.97879C4.35222 5.25494 5.38183 6.76819 6.80683 8.19319C8.23183 9.6182 9.74509 10.6478 11.0212 11.1724C11.6605 11.4352 12.2136 11.5602 12.6512 11.5631C13.086 11.566 13.3607 11.4504 13.528 11.2831C13.7511 11.0601 13.8842 10.6348 13.7623 9.92186C13.6675 9.36705 13.4266 8.70614 13.0427 7.98443C12.8881 8.06448 12.6948 8.11376 12.472 8.07375C11.9314 7.97668 10.9145 7.528 9.19324 5.80678C7.47202 4.08556 7.02335 3.06863 6.92627 2.52805C6.88626 2.30523 6.93555 2.11196 7.01559 1.95732C6.29388 1.57347 5.63297 1.33256 5.07816 1.23772ZM7.87679 1.14813C6.96147 0.623029 6.06671 0.26538 5.26771 0.128806C4.39298 -0.020712 3.5177 0.0802284 2.92144 0.676485C2.47752 1.12041 2.30769 1.72472 2.3119 2.3563C2.31609 2.98505 2.49075 3.68555 2.78712 4.40651C3.38085 5.85087 4.50741 7.48476 6.01134 8.98869C7.51526 10.4926 9.14915 11.6192 10.5935 12.2129C11.3145 12.5093 12.015 12.6839 12.6437 12.6881C13.2753 12.6923 13.8796 12.5225 14.3235 12.0786C14.9198 11.4823 15.0207 10.607 14.8712 9.73231C14.7346 8.93331 14.377 8.03856 13.8519 7.12323C14.893 5.52986 14.7139 3.37244 13.3146 1.97315L13.0269 1.68546C11.6276 0.286168 9.47016 0.10706 7.87679 1.14813ZM8.05957 2.43371C8.15534 2.7485 8.53258 3.55512 9.98874 5.01129C11.4449 6.46745 12.2515 6.84468 12.5663 6.94046C13.6842 5.77177 13.6685 3.91803 12.5191 2.76865L12.2314 2.48096C11.082 1.33157 9.22825 1.31582 8.05957 2.43371ZM2.56412 6.07195C2.78379 6.29162 2.78379 6.64777 2.56412 6.86744L0.973126 8.45843C0.753456 8.6781 0.397301 8.6781 0.177631 8.45843C-0.0420391 8.23876 -0.0420391 7.88261 0.177631 7.66294L1.76862 6.07195C1.98829 5.85228 2.34445 5.85228 2.56412 6.07195ZM5.21577 9.78426C5.43544 10.0039 5.43544 10.3601 5.21577 10.5798L2.12478 13.6707C1.90511 13.8904 1.54895 13.8904 1.32928 13.6707C1.10961 13.4511 1.10961 13.0949 1.32928 12.8752L4.42027 9.78426C4.63994 9.56459 4.9961 9.56459 5.21577 9.78426ZM8.92808 12.4359C9.14775 12.6556 9.14775 13.0117 8.92808 13.2314L7.33709 14.8224C7.11742 15.0421 6.76126 15.0421 6.54159 14.8224C6.32192 14.6027 6.32192 14.2466 6.54159 14.0269L8.13258 12.4359C8.35225 12.2162 8.70841 12.2162 8.92808 12.4359Z" fill="white"/>
</svg>
