<svg width="16" height="16" viewBox="0 0 16 16" fill="none" xmlns="http://www.w3.org/2000/svg">
<path fill-rule="evenodd" clip-rule="evenodd" d="M6.9452 0.739124C7.61226 0.420292 8.38774 0.420292 9.0548 0.739124C9.34459 0.877636 9.61014 1.10413 9.97782 1.41775C9.9969 1.43403 10.0163 1.45055 10.0359 1.46729C10.2145 1.61946 10.2707 1.66625 10.3276 1.70439C10.4723 1.80139 10.6349 1.86872 10.8058 1.90246C10.873 1.91573 10.9458 1.92241 11.1797 1.94107C11.2055 1.94312 11.2308 1.94514 11.2558 1.94712C11.7376 1.98535 12.0855 2.01296 12.3884 2.11993C13.0855 2.36616 13.6338 2.91451 13.8801 3.61164C13.987 3.9145 14.0147 4.26242 14.0529 4.74418C14.0549 4.76918 14.0569 4.79455 14.0589 4.82029C14.0776 5.05415 14.0843 5.127 14.0975 5.1942C14.1313 5.36513 14.1986 5.52766 14.2956 5.67239C14.3337 5.72929 14.3805 5.78552 14.5327 5.96409C14.5495 5.98374 14.566 6.00311 14.5823 6.0222C14.8959 6.38987 15.1224 6.65541 15.2609 6.9452C15.5797 7.61226 15.5797 8.38774 15.2609 9.0548C15.1224 9.34459 14.8959 9.61013 14.5823 9.9778C14.566 9.99689 14.5495 10.0163 14.5327 10.0359C14.3805 10.2145 14.3337 10.2707 14.2956 10.3276C14.1986 10.4723 14.1313 10.6349 14.0975 10.8058C14.0843 10.873 14.0776 10.9459 14.0589 11.1797C14.0569 11.2055 14.0549 11.2308 14.0529 11.2558C14.0147 11.7376 13.987 12.0855 13.8801 12.3884C13.6338 13.0855 13.0855 13.6338 12.3884 13.8801C12.0855 13.987 11.7376 14.0147 11.2558 14.0529C11.2308 14.0549 11.2055 14.0569 11.1797 14.0589C10.9459 14.0776 10.873 14.0843 10.8058 14.0975C10.6349 14.1313 10.4723 14.1986 10.3276 14.2956C10.2707 14.3337 10.2145 14.3805 10.0359 14.5327C10.0163 14.5495 9.9969 14.566 9.97781 14.5823C9.61013 14.8959 9.34459 15.1224 9.0548 15.2609C8.38774 15.5797 7.61226 15.5797 6.9452 15.2609C6.65541 15.1224 6.38986 14.8959 6.02218 14.5822C6.00309 14.566 5.98374 14.5495 5.96409 14.5327C5.78552 14.3805 5.72929 14.3337 5.67239 14.2956C5.52766 14.1986 5.36513 14.1313 5.1942 14.0975C5.127 14.0843 5.05415 14.0776 4.82029 14.0589C4.79455 14.0569 4.76918 14.0549 4.74418 14.0529C4.26242 14.0147 3.9145 13.987 3.61164 13.8801C2.91451 13.6338 2.36616 13.0855 2.11993 12.3884C2.01296 12.0855 1.98535 11.7376 1.94712 11.2558C1.94514 11.2308 1.94312 11.2055 1.94107 11.1797C1.92241 10.9458 1.91573 10.873 1.90246 10.8058C1.86872 10.6349 1.80139 10.4723 1.70439 10.3276C1.66625 10.2707 1.61946 10.2145 1.46729 10.0359C1.45055 10.0163 1.43403 9.9969 1.41776 9.97782C1.10413 9.61014 0.877636 9.3446 0.739124 9.0548C0.420292 8.38774 0.420292 7.61226 0.739124 6.9452C0.877635 6.65541 1.10413 6.38987 1.41775 6.02219C1.43403 6.0031 1.45055 5.98374 1.46729 5.96409C1.61946 5.78552 1.66625 5.72929 1.70439 5.67239C1.80139 5.52766 1.86872 5.36513 1.90246 5.1942C1.91573 5.127 1.92241 5.05415 1.94107 4.82029C1.94312 4.79455 1.94514 4.76918 1.94712 4.74418C1.98535 4.26242 2.01296 3.9145 2.11993 3.61164C2.36616 2.91451 2.91451 2.36616 3.61164 2.11993C3.9145 2.01296 4.26242 1.98535 4.74418 1.94712C4.76918 1.94514 4.79455 1.94312 4.82029 1.94107C5.05415 1.92241 5.127 1.91573 5.1942 1.90246C5.36513 1.86872 5.52766 1.80139 5.67239 1.70439C5.72929 1.66625 5.78552 1.61946 5.96409 1.46729C5.98374 1.45055 6.0031 1.43403 6.02218 1.41775C6.38987 1.10413 6.65541 0.877636 6.9452 0.739124ZM8.56797 1.75767C8.20878 1.58599 7.79122 1.58599 7.43203 1.75767C7.29316 1.82405 7.14679 1.94264 6.69632 2.32653C6.68892 2.33283 6.68162 2.33905 6.67442 2.3452C6.52658 2.47123 6.41867 2.56323 6.30092 2.64215C6.03214 2.8223 5.7303 2.94732 5.41286 3.01C5.27379 3.03745 5.13243 3.0487 4.93878 3.06412C4.92934 3.06487 4.91978 3.06563 4.91009 3.06641C4.32011 3.11349 4.13275 3.13313 3.98762 3.18439C3.61224 3.31698 3.31698 3.61224 3.18439 3.98762C3.13313 4.13275 3.11349 4.32011 3.06641 4.91009C3.06563 4.91978 3.06487 4.92934 3.06412 4.93878C3.0487 5.13243 3.03745 5.27379 3.01 5.41286C2.94732 5.7303 2.8223 6.03214 2.64215 6.30092C2.56323 6.41867 2.47123 6.52659 2.34519 6.67442C2.33905 6.68162 2.33283 6.68892 2.32653 6.69632C1.94264 7.14679 1.82405 7.29316 1.75767 7.43203C1.58599 7.79122 1.58599 8.20878 1.75767 8.56797C1.82405 8.70684 1.94264 8.85321 2.32653 9.30368C2.33283 9.31108 2.33905 9.31838 2.3452 9.32559C2.47123 9.47342 2.56323 9.58133 2.64215 9.69908C2.8223 9.96786 2.94732 10.2697 3.01 10.5871C3.03745 10.7262 3.0487 10.8676 3.06412 11.0612C3.06487 11.0707 3.06563 11.0802 3.06641 11.0899C3.11349 11.6799 3.13313 11.8673 3.18439 12.0124C3.31698 12.3878 3.61224 12.683 3.98762 12.8156C4.13275 12.8669 4.32011 12.8865 4.91009 12.9336L4.93877 12.9359C5.13243 12.9513 5.27379 12.9626 5.41286 12.99C5.7303 13.0527 6.03214 13.1777 6.30092 13.3579C6.41867 13.4368 6.52658 13.5288 6.67442 13.6548L6.69632 13.6735C7.14679 14.0574 7.29316 14.176 7.43203 14.2423C7.79122 14.414 8.20878 14.414 8.56797 14.2423C8.70684 14.176 8.85321 14.0574 9.30368 13.6735L9.32559 13.6548C9.47342 13.5288 9.58134 13.4368 9.69908 13.3579C9.96786 13.1777 10.2697 13.0527 10.5871 12.99C10.7262 12.9626 10.8676 12.9513 11.0612 12.9359L11.0899 12.9336C11.6799 12.8865 11.8673 12.8669 12.0124 12.8156C12.3878 12.683 12.683 12.3878 12.8156 12.0124C12.8669 11.8673 12.8865 11.6799 12.9336 11.0899L12.9359 11.0612C12.9513 10.8676 12.9626 10.7262 12.99 10.5871C13.0527 10.2697 13.1777 9.96786 13.3579 9.69908C13.4368 9.58134 13.5288 9.47342 13.6548 9.32559L13.6735 9.30368C14.0574 8.85321 14.176 8.70684 14.2423 8.56797C14.414 8.20878 14.414 7.79122 14.2423 7.43203C14.176 7.29317 14.0574 7.14679 13.6735 6.69632L13.6548 6.6744C13.5288 6.52657 13.4368 6.41866 13.3579 6.30092C13.1777 6.03214 13.0527 5.7303 12.99 5.41286C12.9626 5.27379 12.9513 5.13243 12.9359 4.93877L12.9336 4.91009C12.8865 4.32011 12.8669 4.13275 12.8156 3.98762C12.683 3.61224 12.3878 3.31698 12.0124 3.18439C11.8673 3.13313 11.6799 3.11349 11.0899 3.06641C11.0802 3.06563 11.0707 3.06487 11.0612 3.06412C10.8676 3.0487 10.7262 3.03745 10.5871 3.01C10.2697 2.94732 9.96786 2.8223 9.69908 2.64215C9.58133 2.56323 9.47342 2.47123 9.32558 2.34519C9.31838 2.33905 9.31108 2.33283 9.30368 2.32653C8.85321 1.94264 8.70684 1.82405 8.56797 1.75767ZM11.0333 5.71935C11.2537 5.93978 11.2537 6.29718 11.0333 6.51761L7.27022 10.2807C7.04979 10.5011 6.69239 10.5011 6.47196 10.2807L4.96674 8.77543C4.74631 8.555 4.74631 8.19761 4.96674 7.97717C5.18717 7.75674 5.54457 7.75674 5.765 7.97717L6.87109 9.08326L10.235 5.71935C10.4554 5.49892 10.8128 5.49892 11.0333 5.71935Z" fill="white"/>
</svg>
