<svg width="18" height="14" viewBox="0 0 18 14" fill="none" xmlns="http://www.w3.org/2000/svg">
<path d="M14.25 7C14.25 7.41421 13.9142 7.75 13.5 7.75C13.0858 7.75 12.75 7.41421 12.75 7C12.75 6.58579 13.0858 6.25 13.5 6.25C13.9142 6.25 14.25 6.58579 14.25 7Z" fill="white"/>
<path fill-rule="evenodd" clip-rule="evenodd" d="M7.45769 0.4375H9.79231C11.1706 0.437488 12.2624 0.437479 13.1168 0.552351C13.9961 0.670572 14.7078 0.91966 15.2691 1.48093C15.9624 2.17422 16.1833 3.10272 16.2635 4.30756C16.6964 4.49808 17.0233 4.90098 17.0594 5.41134C17.0626 5.45649 17.0625 5.50515 17.0625 5.55026C17.0625 5.55437 17.0625 5.55845 17.0625 5.5625V8.4375C17.0625 8.44155 17.0625 8.44563 17.0625 8.44974C17.0625 8.49485 17.0626 8.54351 17.0594 8.58866C17.0233 9.09902 16.6964 9.50193 16.2635 9.69245C16.1833 10.8973 15.9624 11.8258 15.2691 12.5191C14.7078 13.0803 13.9961 13.3294 13.1168 13.4476C12.2624 13.5625 11.1706 13.5625 9.79231 13.5625H7.45769C6.07937 13.5625 4.98764 13.5625 4.13323 13.4476C3.25392 13.3294 2.54221 13.0803 1.98093 12.5191C1.41966 11.9578 1.17057 11.2461 1.05235 10.3668C0.937479 9.51236 0.937488 8.42063 0.9375 7.04231V6.95769C0.937488 5.57937 0.937479 4.48764 1.05235 3.63323C1.17057 2.75392 1.41966 2.04221 1.98093 1.48093C2.5422 0.91966 3.25392 0.670573 4.13323 0.552351C4.98764 0.437479 6.07937 0.437488 7.45769 0.4375ZM15.1259 9.8125H13.6731C12.0642 9.8125 10.6875 8.59183 10.6875 7C10.6875 5.40817 12.0642 4.1875 13.6731 4.1875H15.1259C15.0406 3.18141 14.8475 2.65033 14.4736 2.27643C14.1562 1.95902 13.7214 1.76877 12.9669 1.66732C12.1961 1.5637 11.1801 1.5625 9.75 1.5625H7.5C6.06988 1.5625 5.05388 1.5637 4.28314 1.66732C3.52857 1.76877 3.09383 1.95902 2.77643 2.27643C2.45902 2.59384 2.26877 3.02857 2.16732 3.78314C2.0637 4.55389 2.0625 5.56989 2.0625 7C2.0625 8.43012 2.0637 9.44612 2.16732 10.2169C2.26877 10.9714 2.45902 11.4062 2.77643 11.7236C3.09384 12.041 3.52857 12.2312 4.28314 12.3327C5.05389 12.4363 6.06989 12.4375 7.5 12.4375H9.75C11.1801 12.4375 12.1961 12.4363 12.9669 12.3327C13.7214 12.2312 14.1562 12.041 14.4736 11.7236C14.8475 11.3497 15.0406 10.8186 15.1259 9.8125ZM3.9375 4C3.9375 3.68934 4.18934 3.4375 4.5 3.4375H7.5C7.81066 3.4375 8.0625 3.68934 8.0625 4C8.0625 4.31066 7.81066 4.5625 7.5 4.5625H4.5C4.18934 4.5625 3.9375 4.31066 3.9375 4ZM15.6926 5.31267C15.6774 5.31251 15.6574 5.3125 15.625 5.3125H13.6731C12.6055 5.3125 11.8125 6.10655 11.8125 7C11.8125 7.89345 12.6055 8.6875 13.6731 8.6875H15.625C15.6574 8.6875 15.6774 8.68749 15.6926 8.68733C15.702 8.68723 15.7069 8.68709 15.7093 8.68701L15.711 8.68694C15.8656 8.67753 15.9321 8.57317 15.9371 8.51042C15.9371 8.51042 15.9372 8.5057 15.9373 8.49893C15.9375 8.48562 15.9375 8.46788 15.9375 8.4375V5.5625C15.9375 5.53212 15.9375 5.51438 15.9373 5.50107C15.9372 5.49429 15.9371 5.48957 15.9371 5.48957C15.932 5.42682 15.8655 5.32248 15.711 5.31307C15.711 5.31307 15.7073 5.31282 15.6926 5.31267Z" fill="white"/>
</svg>
