<svg xmlns="http://www.w3.org/2000/svg" viewBox="0 0 261.84 103.59"><defs><style>.cls-1{fill:#000;}</style></defs><title>Asset 5</title><g id="Layer_2" data-name="Layer 2"><g id="Layer_2-2" data-name="Layer 2"><path class="cls-1" d="M261.49,60.53c.15,1.58.29,2.4.29,3.22,0,6.5-.07,13,.06,19.5a9.39,9.39,0,0,1-1.73,5.62C255,96.39,248.13,101.28,239,103c-10,1.85-18.7-.57-26.73-6.46-5.55-4.08-8.63-9.82-11.1-16q-5.84-14.58-11.63-29.17c-3.49-8.81-6.92-17.64-10.38-26.46-2.72-6.94-10-11.64-17.46-12.08-9.48-.55-17,6.08-20.33,13.79-.91,2.06-1.76,4.14-2.75,6.15-4.89,9.85-9.85,19.66-14.72,29.52-2.6,5.26-5.06,10.59-7.6,15.88a36.81,36.81,0,0,1-11.92,14.61A29.75,29.75,0,0,1,92.7,97.55c-12.08,2.35-22.43-1.14-30.93-9.88A29.73,29.73,0,0,1,55.2,76.9C51.27,66,47.14,55.16,43.12,44.29c-2.12-5.73-4-11.54-6.33-17.2-2.71-6.73-7.72-10.68-15-12C15.11,13.8,9.58,16,4.62,20.11c-1.31,1.08-2.15,2.73-3.22,4.1-.13.16-.48.36-.59.3-.27-.16-.65-.45-.66-.7-.09-2-.11-4-.12-6,0-2.62.06-5.25,0-7.87A3.9,3.9,0,0,1,2.35,6.05,35.34,35.34,0,0,1,14.74,2.23C23.36,1.13,31,3.47,38,8.19A29,29,0,0,1,48.51,21.52c2.89,7,5.29,14.25,7.91,21.39C60,52.62,63.53,62.34,67.16,72A19.6,19.6,0,0,0,78.73,84a18.71,18.71,0,0,0,14.52,0A21.24,21.24,0,0,0,104.51,73.1c7.75-15.95,15.64-31.84,23.48-47.75,1.59-3.24,3-6.57,4.85-9.67C138.91,5.37,148.12.42,160,0a31.2,31.2,0,0,1,19.69,5.87A31.43,31.43,0,0,1,191.05,20c7.4,18.65,14.73,37.32,22.15,56,1.43,3.6,3.16,7,6.17,9.7,6,5.33,12.74,6.6,20.13,3.91,4.67-1.7,9.11-4.7,11.44-9.38,2.92-5.21,4.66-9,7.46-14C259.17,64.77,260.23,62.48,261.49,60.53Z"/></g></g></svg>