<svg width="18" height="18" viewBox="0 0 18 18" fill="none" xmlns="http://www.w3.org/2000/svg">
<path fill-rule="evenodd" clip-rule="evenodd" d="M9.00079 2.0625C5.16932 2.0625 2.06329 5.16852 2.06329 9C2.06329 12.8315 5.16932 15.9375 9.00079 15.9375C12.8323 15.9375 15.9383 12.8315 15.9383 9C15.9383 5.16852 12.8323 2.0625 9.00079 2.0625ZM0.938293 9C0.938293 4.5472 4.548 0.9375 9.00079 0.9375C13.4536 0.9375 17.0633 4.5472 17.0633 9C17.0633 13.4528 13.4536 17.0625 9.00079 17.0625C4.548 17.0625 0.938293 13.4528 0.938293 9ZM5.10317 8.4375H7.01593C7.11029 8.10389 7.28649 7.80464 7.52147 7.56282L6.56498 5.90613C5.7896 6.51744 5.24957 7.41398 5.10317 8.4375ZM7.53881 5.34285L8.49548 6.99985C8.65717 6.95913 8.82646 6.9375 9.00079 6.9375C9.17511 6.9375 9.34438 6.95913 9.50607 6.99984L10.4627 5.34283C10.0107 5.16198 9.51738 5.0625 9.00079 5.0625C8.48419 5.0625 7.99082 5.16199 7.53881 5.34285ZM11.4366 5.90611L10.4801 7.56278C10.7151 7.80461 10.8913 8.10387 10.9857 8.4375H12.8984C12.752 7.41396 12.212 6.51741 11.4366 5.90611ZM12.8984 9.5625H10.9857C10.8913 9.89614 10.7151 10.1954 10.4801 10.4373L11.4365 12.0939C12.212 11.4826 12.752 10.5861 12.8984 9.5625ZM10.4627 12.6572L9.50601 11.0002C9.34435 11.0409 9.1751 11.0625 9.00079 11.0625C8.82647 11.0625 8.6572 11.0409 8.49552 11.0002L7.53885 12.6572C7.99085 12.838 8.48421 12.9375 9.00079 12.9375C9.51736 12.9375 10.0107 12.838 10.4627 12.6572ZM6.56501 12.0939L7.5215 10.4372C7.2865 10.1954 7.11029 9.89613 7.01593 9.5625H5.10317C5.24957 10.586 5.78961 11.4826 6.56501 12.0939ZM8.54025 9.81677C8.53753 9.81514 8.53478 9.81352 8.53202 9.81193C8.5294 9.81042 8.52678 9.80892 8.52414 9.80746C8.24829 9.64426 8.06329 9.34374 8.06329 9C8.06329 8.65751 8.24694 8.35792 8.52114 8.19433C8.52479 8.19233 8.52842 8.19028 8.53204 8.18819C8.53587 8.18598 8.53966 8.18374 8.54341 8.18145C8.6787 8.10569 8.8347 8.0625 9.00079 8.0625C9.16611 8.0625 9.32143 8.10529 9.45628 8.18039C9.46063 8.18306 9.46502 8.18568 9.46946 8.18824C9.47371 8.19069 9.47798 8.19308 9.48226 8.19541C9.75545 8.35924 9.93829 8.65827 9.93829 9C9.93829 9.34462 9.75234 9.64582 9.47531 9.80872C9.47338 9.8098 9.47146 9.81089 9.46954 9.812C9.46745 9.81321 9.46536 9.81444 9.46328 9.81567C9.32681 9.89322 9.16897 9.9375 9.00079 9.9375C8.83341 9.9375 8.67627 9.89363 8.54025 9.81677ZM3.93829 9C3.93829 6.20406 6.20485 3.9375 9.00079 3.9375C11.7967 3.9375 14.0633 6.20406 14.0633 9C14.0633 11.7959 11.7967 14.0625 9.00079 14.0625C6.20485 14.0625 3.93829 11.7959 3.93829 9Z" fill="white"/>
</svg>
